<svg id="Layer_1" data-name="Layer 1" xmlns="http://www.w3.org/2000/svg" xmlns:xlink="http://www.w3.org/1999/xlink" viewBox="0 0 140.68 140.68"><defs><clipPath id="clip-path" transform="translate(-613.6 -313.32)"><rect x="612" y="313.32" width="143.89" height="140.68" style="fill:none"/></clipPath></defs><title>front-green-circle</title><g style="clip-path:url(#clip-path)"><path d="M683.95,446.6A62.95,62.95,0,1,0,621,383.66a62.95,62.95,0,0,0,62.94,62.94" transform="translate(-613.6 -313.32)" style="fill:#d59d4b"/></g><text transform="translate(40.51 57.32)" style="font-size:16px;fill:#fff;font-family:Arvo, Arvo"><tspan style="letter-spacing:-0.040008544921875em">V</tspan><tspan x="10.96" y="0" style="letter-spacing:-0.03900146484375em">isi</tspan><tspan x="27.11" y="0" style="letter-spacing:-0.03997802734375em">t</tspan><tspan x="32.43" y="0" style="letter-spacing:-0.03900146484375em"> </tspan><tspan x="35.3" y="0" style="letter-spacing:-0.040008544921875em">th</tspan><tspan x="50.55" y="0">e </tspan></text><text transform="translate(102.4 57.32)" style="font-size:16px;fill:#fff;font-family:Arvo, Arvo"> </text><text transform="translate(32.4 74.46)" style="font-size:16px;fill:#fff;font-family:Arvo, Arvo"><tspan style="letter-spacing:-0.03900146484375em">Resi</tspan><tspan x="30.96" y="0" style="letter-spacing:-0.040008544921875em">d</tspan><tspan x="40.23" y="0" style="letter-spacing:-0.038970947265625em">en</tspan><tspan x="58.83" y="0" style="letter-spacing:-0.040008544921875em">t</tspan><tspan x="64.15" y="0" style="letter-spacing:-0.03900146484375em">’</tspan><tspan x="68.26" y="0">s</tspan></text><text transform="translate(43.84 91.59)" style="font-size:16px;fill:#fff;font-family:Arvo, Arvo"><tspan style="letter-spacing:-0.03900146484375em">C</tspan><tspan x="11.17" y="0" style="letter-spacing:-0.040008544921875em">o</tspan><tspan x="20.1" y="0" style="letter-spacing:-0.03900146484375em">rne</tspan><tspan x="45.57" y="0">r</tspan></text><g style="clip-path:url(#clip-path)"><circle cx="70.34" cy="70.34" r="69.94" style="fill:none;stroke:#fff;stroke-width:0.8100000023841858px"/></g></svg>