<?xml version="1.0" encoding="utf-8"?>
<!-- Generator: Adobe Illustrator 18.0.0, SVG Export Plug-In . SVG Version: 6.00 Build 0)  -->
<!DOCTYPE svg PUBLIC "-//W3C//DTD SVG 1.1//EN" "http://www.w3.org/Graphics/SVG/1.1/DTD/svg11.dtd">
<svg version="1.1" xmlns="http://www.w3.org/2000/svg" xmlns:xlink="http://www.w3.org/1999/xlink" x="0px" y="0px" width="40px"
	 height="302px" viewBox="0 0 40 302" enable-background="new 0 0 40 302" xml:space="preserve">
<g id="Layer_1">
	<g>
		<g>
			<path fill="#FFFFFF" d="M32.3,43.5c-1.9,0-3.5-1.3-3.5-2.9v-1.8h-17v1.8c0,1.6-1.6,2.9-3.5,2.9c-1.9,0-3.5-1.3-3.5-2.9v-1.8H4.4
				c-0.1,0-0.2,0-0.3,0c-1.1,0-2.4-0.8-2.4-3.1c-0.3-3.1-0.4-9.5-0.3-15.9C0.5,19.2,0,18.3,0,17.3v-4.1c0-1.3,0.8-2.4,1.9-2.8
				C2.3,7,2.8,4.8,3.5,3.7C5.6,0.3,16.1,0,19.2,0c6.4,0,14.7,0.9,16.9,3.6c0.9,1,1.5,3.2,1.9,6.8c1.2,0.4,2,1.6,2,2.8v4.1
				c0,1.1-0.6,2-1.5,2.6c0.1,4.8,0,9.6,0,13.2c0,1.5,0,2.8,0,3.8l0,0.1c0,0.4-0.4,1.8-2.6,1.8c0,0-0.1,0-0.1,0v1.8
				C35.8,42.2,34.2,43.5,32.3,43.5z M10,36.9h20.7v3.7c0,0.6,0.8,1.1,1.6,1.1s1.6-0.5,1.6-1.1v-3.7l1.6,0c0,0,0.2,0,0.4,0
				c0.4,0,0.7-0.1,0.8-0.1c0-1,0-2.2,0-3.7c0.1-3.7,0.1-8.9,0-13.8l0-0.7l0.7-0.2c0.5-0.2,0.8-0.6,0.8-1.1v-4.1
				c0-0.6-0.5-1.1-1.1-1.2L36.3,12l-0.1-0.8c-0.5-4.6-1.2-6-1.5-6.4c-1.4-1.7-7.9-2.9-15.5-2.9c-8.1,0-13.3,1.4-14.1,2.8
				c-0.3,0.5-0.9,2-1.4,6.5L3.6,12L2.9,12c-0.6,0.1-1,0.6-1,1.2v4.1c0,0.5,0.3,0.9,0.8,1.1l0.6,0.2l0,0.7c-0.2,6.6,0,13.2,0.2,16.3
				l0,0.1c0,0.6,0.1,1.2,0.5,1.2c0,0,0.1,0,0.1,0l0.2,0h2.5v3.7c0,0.6,0.7,1.1,1.6,1.1c0.9,0,1.6-0.5,1.6-1.1V36.9z M29.2,35.5
				c-2,0-3.6-1.6-3.6-3.6c0-2,1.6-3.6,3.6-3.6c2,0,3.6,1.6,3.6,3.6C32.9,33.9,31.2,35.5,29.2,35.5z M29.2,30.1c-1,0-1.8,0.8-1.8,1.8
				c0,1,0.8,1.8,1.8,1.8c1,0,1.8-0.8,1.8-1.8C31,30.9,30.2,30.1,29.2,30.1z M10.6,35.5c-2,0-3.6-1.6-3.6-3.6c0-2,1.6-3.6,3.6-3.6
				c2,0,3.6,1.6,3.6,3.6C14.2,33.9,12.6,35.5,10.6,35.5z M10.6,30.1c-1,0-1.8,0.8-1.8,1.8c0,1,0.8,1.8,1.8,1.8c1,0,1.8-0.8,1.8-1.8
				C12.4,30.9,11.6,30.1,10.6,30.1z M33.6,24.7H6.1V10.1h27.5V24.7z M7.9,22.9h23.8V11.9H7.9V22.9z M30.3,8.8H9.4V4.1h20.9V8.8z
				 M11.3,7h17.2v-1H11.3V7z"/>
		</g>
	</g>
</g>
<g id="Layer_2">
	<g>
		<path fill="#FFFFFF" d="M37.5,83.4c-0.8,0-1.5-0.7-1.5-1.5V55.1c0-0.4,0.3-1.1,1.5-1.1c1.9,0,2.5,6.7,2.5,9.1c0,3.8-0.8,7.3-1,7.8
			v11C39,82.7,38.4,83.4,37.5,83.4L37.5,83.4z M37,71.4v10.5c0,0.3,0.2,0.5,0.5,0.5c0.3,0,0.5-0.2,0.5-0.5V71.4H37z M37,70.4h1.1
			c0.2-1,0.9-4.1,0.9-7.2c0-4.2-1-7.8-1.5-8.1c-0.3,0-0.4,0.1-0.5,0.2V70.4z M3.3,83.4c-0.4,0-0.7-0.1-1-0.4C2.1,82.8,2,82.5,2,82.1
			l0.2-16.4c-1.2-0.5-2.1-1.7-2.1-3c0,0,0,0,0,0l0.3-7.6c0-0.3,0.3-0.5,0.5-0.5c0.3,0,0.5,0.2,0.5,0.5l-0.3,7h0.9l0.2-7.1
			c0-0.3,0.2-0.5,0.5-0.5c0.3,0,0.5,0.2,0.5,0.5l-0.2,7h0.9l-0.2-7c0-0.3,0.2-0.5,0.5-0.5c0.3,0,0.5,0.2,0.5,0.5l0.2,7.1h0.9l-0.3-7
			c0-0.3,0.2-0.5,0.5-0.5c0.3,0,0.5,0.2,0.5,0.5l0.3,7.6c0,0,0,0,0,0c0,1.4-0.9,2.6-2.1,3l0.2,16.4c0,0.3-0.1,0.6-0.4,0.9
			C4.1,83.3,3.7,83.4,3.3,83.4L3.3,83.4z M3.1,66L3,82.1c0,0.1,0,0.1,0.1,0.2c0.1,0.1,0.4,0.1,0.6,0c0,0,0.1-0.1,0.1-0.2L3.5,66H3.1
			z M1.1,63.2c0.3,1,1.2,1.8,2.3,1.8c1.1,0,2-0.8,2.3-1.8H1.1z M20.6,81.4c-7.4,0-13.3-6-13.3-13.3c0-7.4,6-13.3,13.3-13.3
			c7.4,0,13.3,6,13.3,13.3C33.9,75.4,27.9,81.4,20.6,81.4L20.6,81.4z M20.6,55.8c-6.8,0-12.3,5.5-12.3,12.3
			c0,6.8,5.5,12.3,12.3,12.3c6.8,0,12.3-5.5,12.3-12.3C32.9,61.3,27.4,55.8,20.6,55.8L20.6,55.8z M20.6,77.8c-5.4,0-9.7-4.4-9.7-9.7
			c0-5.4,4.4-9.7,9.7-9.7c5.4,0,9.7,4.4,9.7,9.7C30.3,73.4,25.9,77.8,20.6,77.8L20.6,77.8z M20.6,59.4c-4.8,0-8.7,3.9-8.7,8.7
			c0,4.8,3.9,8.7,8.7,8.7c4.8,0,8.7-3.9,8.7-8.7C29.3,63.3,25.4,59.4,20.6,59.4L20.6,59.4z M20.6,59.4"/>
	</g>
</g>
<g id="Layer_3">
	<g>
		<g>
			<path fill="#FFFFFF" d="M39.8,108l-1.8-1.8c-0.3-0.3-0.8-0.3-1.1,0l-1.1,1.1c-0.3,0.3-0.7,0.3-1,0c-0.3-0.3-0.3-0.7,0-1l1.1-1.1
				c0.3-0.3,0.3-0.8,0-1.1l-1.9-1.9c-0.3-0.3-0.8-0.3-1.1,0l-1.1,1.1c-0.3,0.3-0.7,0.3-1,0c-0.3-0.3-0.3-0.7,0-1l1.1-1.1
				c0.3-0.3,0.3-0.8,0-1.1l-1.9-1.9c-0.3-0.3-0.8-0.3-1.1,0l-1.1,1.1c-0.3,0.3-0.7,0.3-1,0c-0.3-0.3-0.3-0.7,0-1l1.1-1.1
				c0.3-0.3,0.3-0.8,0-1.1L26,94.2c-0.3-0.3-0.8-0.3-1.1,0L0.2,118.9c-0.3,0.3-0.3,0.8,0,1.1l1.8,1.8c0.3,0.3,0.8,0.3,1.1,0l1.4-1.4
				c0.3-0.3,0.7-0.3,1,0c0.3,0.3,0.3,0.7,0,1l-1.4,1.4c-0.3,0.3-0.3,0.8,0,1.1l1.9,1.9c0.3,0.3,0.8,0.3,1.1,0l1.4-1.4
				c0.3-0.3,0.7-0.3,1,0c0.3,0.3,0.3,0.7,0,1l-1.4,1.4c-0.3,0.3-0.3,0.8,0,1.1l1.9,1.9c0.3,0.3,0.8,0.3,1.1,0l1.4-1.4
				c0.3-0.3,0.7-0.3,1,0c0.3,0.3,0.3,0.7,0,1l-1.4,1.4c-0.3,0.3-0.3,0.8,0,1.1l1.8,1.8c0.3,0.3,0.8,0.3,1.1,0l24.7-24.7
				C40.1,108.8,40.1,108.3,39.8,108L39.8,108z M14.5,132.1l-0.8-0.8l0.8-0.8c0.9-0.9,0.9-2.3,0-3.1c-0.9-0.9-2.3-0.9-3.1,0l-0.8,0.8
				l-0.8-0.8l0.8-0.8c0.9-0.9,0.9-2.3,0-3.1c-0.9-0.9-2.3-0.9-3.1,0l-0.8,0.8l-0.8-0.8l0.8-0.8c0.9-0.9,0.9-2.3,0-3.1
				c-0.9-0.9-2.3-0.9-3.1,0l-0.8,0.8l-0.8-0.8l23.6-23.6l0.8,0.8l-0.5,0.5c-0.9,0.9-0.9,2.3,0,3.1c0.9,0.9,2.3,0.9,3.1,0l0.5-0.5
				l0.8,0.8l-0.5,0.5c-0.9,0.9-0.9,2.3,0,3.1c0.9,0.9,2.3,0.9,3.1,0l0.5-0.5l0.8,0.8l-0.5,0.5c-0.9,0.9-0.9,2.3,0,3.1
				c0.9,0.9,2.3,0.9,3.1,0l0.5-0.5l0.8,0.8L14.5,132.1z M14.5,132.1"/>
		</g>
		<path fill="#FFFFFF" d="M30.5,111.7l-8.2-8.2c-0.3-0.3-0.8-0.3-1.1,0c-0.3,0.3-0.3,0.8,0,1.1l8.2,8.2c0.3,0.3,0.8,0.3,1.1,0
			C30.8,112.5,30.8,112,30.5,111.7L30.5,111.7z M30.5,111.7"/>
		<path fill="#FFFFFF" d="M27.5,114.7l-8.2-8.2c-0.3-0.3-0.8-0.3-1.1,0c-0.3,0.3-0.3,0.8,0,1.1l8.2,8.2c0.3,0.3,0.8,0.3,1.1,0
			C27.8,115.5,27.8,115,27.5,114.7L27.5,114.7z M27.5,114.7"/>
		<path fill="#FFFFFF" d="M21.5,120.8l-8.2-8.2c-0.3-0.3-0.8-0.3-1.1,0c-0.3,0.3-0.3,0.8,0,1.1l8.2,8.2c0.3,0.3,0.8,0.3,1.1,0
			C21.8,121.5,21.8,121.1,21.5,120.8L21.5,120.8z M21.5,120.8"/>
		<path fill="#FFFFFF" d="M24.5,117.7l-8.2-8.2c-0.3-0.3-0.8-0.3-1.1,0c-0.3,0.3-0.3,0.8,0,1.1l8.2,8.2c0.3,0.3,0.8,0.3,1.1,0
			C24.8,118.5,24.8,118,24.5,117.7L24.5,117.7z M24.5,117.7"/>
	</g>
</g>
<g id="Layer_4">
	<g>
		<path fill="#FFFFFF" d="M36.4,193.3H3.6c-1,0-1.8-0.4-2.5-1c-0.7-0.7-1-1.5-1-2.5v-26.3c0-0.4,0.1-0.8,0.2-1.2
			c0-0.2,0.1-0.4,0.2-0.7l0-0.1l3.6-5.8c0.3-0.6,0.9-1,1.7-1h3.9v-0.2c0-3,1-5.5,2.9-7.5c1.9-2,4.4-3,7.4-3c3,0,5.4,1,7.4,3
			c1.9,2,2.9,4.5,2.9,7.5v0.2h3.9c0.9,0,1.6,0.5,1.9,1.3l3.4,5.5l0.1,0.3c0.2,0.5,0.3,1,0.3,1.5v26.3
			C40,191.8,38.4,193.3,36.4,193.3z M1.8,162.2c-0.1,0.2-0.1,0.3-0.1,0.3v0.2l-0.1,0.1c-0.1,0.2-0.2,0.5-0.2,0.8v26.3
			c0,0.6,0.2,1.1,0.6,1.5c0.4,0.4,0.9,0.6,1.5,0.6h32.9c1.2,0,2.1-0.9,2.1-2.1v-26.3c0-0.3-0.1-0.6-0.2-0.9l-0.1-0.4l-3.5-5.6
			c-0.1-0.3-0.3-0.4-0.5-0.4h-5.4v-1.7c0-2.7-0.8-4.8-2.5-6.5c-1.7-1.7-3.7-2.5-6.3-2.5c-2.6,0-4.7,0.8-6.4,2.5
			c-1.7,1.7-2.5,3.9-2.5,6.5v1.7H5.8c-0.3,0-0.4,0.1-0.4,0.3l-0.1,0.1l-0.1,0.1L1.8,162.2z M36.4,190.7H3.6c-0.6,0-1-0.4-1-1v-26.3
			c0-0.6,0.4-1,1-1h32.9c0.6,0,1,0.4,1,1v26.3C37.4,190.3,37,190.7,36.4,190.7z M4.1,189.3h31.8v-25.3H4.1V189.3z M36.3,161.3h-7.5
			v-4.1h5L36.3,161.3z M30.3,159.9h3.4l-0.7-1.1h-2.7V159.9z M27.7,161.3H12.3v-4.1h15.4V161.3z M13.8,159.9h12.5v-1.1H13.8V159.9z
			 M11.2,161.3H3.7l2.5-4.1h5V161.3z M6.3,159.9h3.4v-1.1H7L6.3,159.9z M27.7,156.2H12.3v-1.7c0-2.3,0.7-4.2,2.2-5.7
			c1.4-1.5,3.3-2.2,5.6-2.2c2.2,0,4.1,0.8,5.5,2.2c1.4,1.5,2.2,3.4,2.2,5.7V156.2z M13.8,154.7h12.5v-0.2c0-1.9-0.6-3.5-1.7-4.7
			c-1.1-1.2-2.7-1.8-4.5-1.8c-1.8,0-3.4,0.6-4.5,1.8c-1.2,1.2-1.7,2.7-1.7,4.7V154.7z"/>
	</g>
</g>
<g id="Layer_5">
	<g>
		<g>
			<path fill="#FFFFFF" d="M20,241.5c-0.6,0-1.2-0.3-1.6-0.7L3.1,224.3c-2-2.2-3.1-5.2-3.1-8.3c0-3.1,1.1-6,3.1-8.2l0.2-0.3
				c2.1-2.3,4.8-3.5,7.7-3.5s5.7,1.3,7.7,3.5l1.2,1.3l1.2-1.3c2.1-2.3,4.8-3.5,7.7-3.5s5.7,1.3,7.7,3.5l0.2,0.3
				c2,2.2,3.1,5.1,3.1,8.2c0,3.1-1.1,6-3.1,8.2l-0.1,0.1l-15.3,16.5C21.2,241.2,20.6,241.5,20,241.5z M11.1,205.7
				c-2.4,0-4.7,1.1-6.5,3l-0.2,0.3c-1.7,1.9-2.7,4.4-2.7,7.1s0.9,5.2,2.7,7.1l15.3,16.5c0.2,0.2,0.5,0.2,0.6,0l15.3-16.5
				c1.7-1.9,2.7-4.4,2.7-7.1s-0.9-5.2-2.7-7.1l-0.2-0.3c-1.7-1.9-4-3-6.5-3s-4.7,1.1-6.5,3l-2.4,2.7l-2.4-2.7
				C15.8,206.8,13.5,205.7,11.1,205.7z"/>
		</g>
	</g>
</g>
<g id="Layer_6">
	<g>
		<g>
			<path fill="#FFFFFF" d="M20,292c-2.3,0-4.1-1.8-4.1-4.1v-6l-4.2,4.2c-0.8,0.8-1.8,1.2-2.9,1.2c-1.1,0-2.1-0.4-2.9-1.2
				c-1.6-1.6-1.6-4.2,0-5.8l4.2-4.2h-6c-2.3,0-4.1-1.8-4.1-4.1c0-2.3,1.8-4.1,4.1-4.1h6l-4.2-4.2c-1.6-1.6-1.6-4.2,0-5.8
				c0.8-0.8,1.8-1.2,2.9-1.2c1.1,0,2.1,0.4,2.9,1.2l4.2,4.2v-6c0-2.3,1.8-4.1,4.1-4.1c2.3,0,4.1,1.8,4.1,4.1v6l4.2-4.2
				c0.8-0.8,1.8-1.2,2.9-1.2s2.1,0.4,2.9,1.2c0.8,0.8,1.2,1.8,1.2,2.9c0,1.1-0.4,2.1-1.2,2.9l-4.2,4.2h6c2.3,0,4.1,1.8,4.1,4.1
				c0,2.3-1.8,4.1-4.1,4.1h-6l4.2,4.2c0.8,0.8,1.2,1.8,1.2,2.9s-0.4,2.1-1.2,2.9c-0.8,0.8-1.8,1.2-2.9,1.2s-2.1-0.4-2.9-1.2
				l-4.2-4.2v6C24.1,290.2,22.3,292,20,292z M17.5,278v9.9c0,1.4,1.1,2.5,2.5,2.5c1.4,0,2.5-1.1,2.5-2.5V278l7,7
				c0.5,0.5,1.1,0.7,1.8,0.7c0.7,0,1.3-0.3,1.8-0.7s0.7-1.1,0.7-1.8s-0.3-1.3-0.7-1.8l-7-7h9.9c1.4,0,2.5-1.1,2.5-2.5
				c0-1.4-1.1-2.5-2.5-2.5H26l7-7c0.5-0.5,0.7-1.1,0.7-1.8c0-0.7-0.3-1.3-0.7-1.8c-0.5-0.5-1.1-0.7-1.8-0.7c-0.7,0-1.3,0.3-1.8,0.7
				l-7,7v-9.9c0-1.4-1.1-2.5-2.5-2.5c-1.4,0-2.5,1.1-2.5,2.5v9.9l-7-7c-0.5-0.5-1.1-0.7-1.8-0.7c-0.7,0-1.3,0.3-1.8,0.7
				c-1,1-1,2.5,0,3.5l7,7H4.1c-1.4,0-2.5,1.1-2.5,2.5c0,1.4,1.1,2.5,2.5,2.5H14l-7,7c-1,1-1,2.5,0,3.5c0.5,0.5,1.1,0.7,1.8,0.7
				c0.7,0,1.3-0.3,1.8-0.7L17.5,278z"/>
		</g>
	</g>
</g>
</svg>
