<?xml version="1.0" encoding="utf-8"?>
<!-- Generator: Adobe Illustrator 18.0.0, SVG Export Plug-In . SVG Version: 6.00 Build 0)  -->
<!DOCTYPE svg PUBLIC "-//W3C//DTD SVG 1.1//EN" "http://www.w3.org/Graphics/SVG/1.1/DTD/svg11.dtd">
<svg version="1.1" id="Layer_2" xmlns="http://www.w3.org/2000/svg" xmlns:xlink="http://www.w3.org/1999/xlink" x="0px" y="0px"
	 width="50px" height="300px" viewBox="0 0 50 300" enable-background="new 0 0 50 300" xml:space="preserve">
<rect y="14.4" fill="#FFFFFF" width="50" height="4.2"/>
<rect y="0" fill="#FFFFFF" width="50" height="4.2"/>
<rect y="28.8" fill="#FFFFFF" width="50" height="4.2"/>
<g>
	<g>
		
			<rect x="-8.3" y="82.9" transform="matrix(0.7071 0.7071 -0.7071 0.7071 67.4274 7.2174)" fill="#FFFFFF" width="66.6" height="4.2"/>
	</g>
	<g>
		
			<rect x="22.9" y="51.7" transform="matrix(0.7071 0.7071 -0.7071 0.7071 67.4267 7.2175)" fill="#FFFFFF" width="4.2" height="66.6"/>
	</g>
</g>
<g>
	<g>
		
			<rect x="-8.3" y="272.9" transform="matrix(0.7071 0.7071 -0.7071 0.7071 201.755 62.8577)" fill="#E84B37" width="66.6" height="4.2"/>
	</g>
	<g>
		
			<rect x="22.9" y="241.7" transform="matrix(0.7071 0.7071 -0.7071 0.7071 201.7543 62.8578)" fill="#E84B37" width="4.2" height="66.6"/>
	</g>
</g>
<g>
	
		<rect x="23.4" y="116.3" transform="matrix(-0.7071 0.7071 -0.7071 -0.7071 138.2672 210.7029)" fill="#FFFFFF" width="4.2" height="35.3"/>
	
		<rect x="23.5" y="138.4" transform="matrix(0.7071 0.7071 -0.7071 0.7071 117.8103 27.6251)" fill="#FFFFFF" width="4.2" height="35.3"/>
</g>
<g>
	
		<rect x="23.5" y="198.3" transform="matrix(0.7071 -0.7071 0.7071 0.7071 -145.21 81.3506)" fill="#FFFFFF" width="4.2" height="35.3"/>
	
		<rect x="23.4" y="176.3" transform="matrix(-0.7071 -0.7071 0.7071 -0.7071 -93.5415 349.1014)" fill="#FFFFFF" width="4.2" height="35.3"/>
</g>
</svg>
