<?xml version="1.0" encoding="utf-8"?>
<!-- Generator: Adobe Illustrator 19.2.0, SVG Export Plug-In . SVG Version: 6.00 Build 0)  -->
<svg version="1.1" id="Layer_1" xmlns="http://www.w3.org/2000/svg" xmlns:xlink="http://www.w3.org/1999/xlink" x="0px" y="0px"
	 width="30px" height="160px" viewBox="0 0 30 160" style="enable-background:new 0 0 30 160;" xml:space="preserve">
<style type="text/css">
	.st0{fill:#E84B37;}
</style>
<g id="Layer_1_1_">
	<path class="st0" d="M25.7,0H4.3C1.9,0,0,1.9,0,4.3v21.4C0,28.1,1.9,30,4.3,30h21.4c2.4,0,4.3-1.9,4.3-4.3V4.3
		C30,1.9,28.1,0,25.7,0z M25.5,16.8h-4.1v11h-4.2v-11h-2.9v-4h2.9c0,0,0-1.6,0-3.4c0-2.7,1.7-5.1,5.7-5.1c1.6,0,2.8,0.2,2.8,0.2
		l-0.1,3.7c0,0-1.2,0-2.5,0c-1.4,0-1.7,0.7-1.7,1.8c0,0.1,0,0.2,0,0.2c0,0.3,0,1.1,0,2.7h4.3L25.5,16.8z"/>
</g>
<g id="Layer_1_copy">
	<g>
		<g>
			<path class="st0" d="M7.5,56.4c2.7,0.1,4.3-2.2,3.8-5.8C10.8,47,8.5,44.1,5.8,44s-4.6,2.7-4.1,6.3C2.1,53.8,4.7,56.4,7.5,56.4z"
				/>
		</g>
		<g>
			<path class="st0" d="M9.6,64.2c-0.8-0.3-1.7-0.4-2.6-0.4c-2.9,0-5.5,1.3-6.7,3.1c0.4,1.8,2.1,3.1,4,3.1h9.8c0-0.1,0-0.3,0-0.4
				c0-0.4,0-0.7-0.1-1.1C13.6,66.7,11.8,65.8,9.6,64.2z"/>
		</g>
		<g>
			<path class="st0" d="M25.3,54.5H23v-4.7h-4.7v-2.3H23v-4.7h2.3v4.7H30v-3.2c0-2.4-1.9-4.3-4.3-4.3H4.3C1.9,40,0,41.9,0,44.3v1.1
				c1.7-1.8,4.4-3,7.3-3c2.7,0,10.2,0,10.2,0l-2.3,2.4h-2.7c1.9,1.1,2.9,3.3,2.9,5.7c0,2.2-1.2,4.1-3,5.4c-1.7,1.3-2,1.9-2,3
				c0,1,2,2.4,3,3.1c3.3,2.5,3.9,4,3.9,7.1c0,0.3,0,0.6-0.1,0.9h8.5c2.4,0,4.3-1.9,4.3-4.3V49.8h-4.7V54.5z"/>
		</g>
		<g>
			<path class="st0" d="M7.4,62.6C6.6,61.8,6,61.1,6,59.9c0-0.7,0.2-1.4,0.5-2c-0.3,0-0.6,0-1,0c-2.3,0-4.2-0.8-5.5-2.1V64
				c1.6-0.9,3.5-1.4,5.6-1.4C6.2,62.6,6.8,62.6,7.4,62.6z"/>
		</g>
	</g>
</g>
<path class="st0" d="M25.7,80H4.3C1.9,80,0,81.9,0,84.3v21.4c0,2.4,1.9,4.3,4.3,4.3h21.4c2.4,0,4.3-1.9,4.3-4.3V84.3
	C30,81.9,28.1,80,25.7,80z M23,90.9c0,0.2,0,0.4,0,0.5c0,5.4-4.1,11.7-11.7,11.7c-2.3,0-4.5-0.7-6.3-1.8c0.3,0,0.6,0.1,1,0.1
	c1.9,0,3.7-0.7,5.1-1.8c-1.8,0-3.3-1.2-3.8-2.8c0.3,0,0.5,0.1,0.8,0.1c0.4,0,0.7-0.1,1.1-0.1c-1.9-0.4-3.3-2-3.3-4c0,0,0,0,0-0.1
	c0.6,0.3,1.2,0.5,1.9,0.5c-1.1-0.7-1.8-2-1.8-3.4c0-0.8,0.2-1.5,0.6-2.1c2,2.5,5,4.1,8.5,4.3C15,91.7,15,91.4,15,91.1
	c0-2.3,1.8-4.1,4.1-4.1c1.2,0,2.2,0.5,3,1.3c0.9-0.2,1.8-0.5,2.6-1c-0.3,1-1,1.8-1.8,2.3c0.8-0.1,1.6-0.3,2.4-0.6
	C24.4,89.6,23.8,90.3,23,90.9z"/>
<g>
	<path class="st0" d="M19.3,131.4h2.1c0.5,0,0.8-0.4,0.8-0.8v-2c0-0.5-0.4-0.8-0.8-0.8h-2.1c-0.5,0-0.8,0.4-0.8,0.8v2
		C18.5,131,18.8,131.4,19.3,131.4z"/>
	<path class="st0" d="M20.9,135.2c0,3.1-2.6,5.7-5.8,5.7s-5.8-2.5-5.8-5.7c0-0.6,0.1-1.1,0.2-1.6H7.7v7.9c0,0.4,0.3,0.7,0.7,0.7
		h13.1c0.4,0,0.7-0.3,0.7-0.7v-7.9h-1.7C20.8,134.1,20.9,134.6,20.9,135.2z"/>
	<ellipse class="st0" cx="15" cy="135" rx="3.8" ry="3.7"/>
	<path class="st0" d="M26,120H4c-2.2,0-4,1.8-4,4v22c0,2.2,1.8,4,4,4h22c2.2,0,4-1.8,4-4v-22C30,121.8,28.2,120,26,120z M24.4,142
		c0,1.3-1.1,2.4-2.4,2.4H8c-1.3,0-2.4-1.1-2.4-2.4v-14c0-1.3,1.1-2.4,2.4-2.4h14c1.3,0,2.4,1.1,2.4,2.4V142z"/>
</g>
</svg>
