<?xml version="1.0" encoding="utf-8"?>
<!-- Generator: Adobe Illustrator 18.0.0, SVG Export Plug-In . SVG Version: 6.00 Build 0)  -->
<!DOCTYPE svg PUBLIC "-//W3C//DTD SVG 1.1//EN" "http://www.w3.org/Graphics/SVG/1.1/DTD/svg11.dtd">
<svg version="1.1" id="Layer_2" xmlns="http://www.w3.org/2000/svg" xmlns:xlink="http://www.w3.org/1999/xlink" x="0px" y="0px"
	 width="50px" height="523.3px" viewBox="0 0 50 523.3" enable-background="new 0 0 50 523.3" xml:space="preserve">
<g>
	<g>
		<path fill="#FFFFFF" d="M11.4,215.9c-0.3,0.9,0,1.8,0.7,2.4l6.8,5.2c-4.5-0.1-8.9-0.9-13.3-2.2c1.1-16,8.9-31.2,21.3-41.7
			c10.6,11.6,16.8,26.6,17.4,42.3L28,223.3v-2.5l8.4-8.5c0.6-0.6,0.7-1.3,0.4-2c-0.3-0.8-1.1-1.3-1.9-1.3c-0.5,0-1,0.2-1.3,0.6
			l-5.6,5.7v-13.3l4.1-4.2c0.6-0.6,0.7-1.3,0.4-2c-0.3-0.8-1.1-1.3-1.9-1.3c-0.5,0-1,0.2-1.3,0.6l-1.3,1.4v-4.3c0-1.3-1-1.9-2-1.9
			s-2,0.6-2,1.9v12.4l-4-4c-0.4-0.4-0.8-0.6-1.3-0.6c-0.8,0-1.6,0.5-1.9,1.3c-0.3,0.7-0.1,1.5,0.4,2l6.8,6.8v12.2l-9.9-7.5
			c-0.3-0.3-0.7-0.4-1.1-0.4C12.4,214.5,11.7,215.1,11.4,215.9 M26.1,238.2c1,0,2-0.6,2-1.9v-8.4l18.1-1.7c0.2,0.1,0.4,0.1,0.6,0.1
			c0.6,0,1.3-0.3,1.7-0.6c0.4-0.4,0.6-1,0.6-1.6c-0.1-17.8-7.1-35.4-19.3-48.4c-0.3-0.8-1.2-1.5-2.1-1.6c-0.7-0.1-1.5,0.1-2,0.7
			C11,186.2,1.8,204.1,1,222.7c-0.1,1,0.5,1.8,1.4,2.1c0.2,0.1,0.4,0.2,0.6,0.3c6.4,2.2,13.2,3.1,20,2.8c0.3,0.2,0.7,0.3,1.1,0.3v8
			C24.1,237.6,25.1,238.2,26.1,238.2"/>
	</g>
</g>
<g>
	<g>
		<path fill="#FFFFFF" d="M21.7,124.1c-1.4,0.2-2.6-0.8-2.8-2.1c-0.2-1.4,0.8-2.6,2.1-2.8c1.4-0.2,2.6,0.8,2.8,2.1
			C24,122.6,23,123.9,21.7,124.1 M20.8,118c-2,0.3-3.3,2-3,4.1c0.3,2,2,3.3,4.1,3c2-0.3,3.3-2,3-4.1C24.6,119.1,22.8,117.8,20.8,118
			"/>
	</g>
	<g>
		<path fill="#FFFFFF" d="M18,126.2l-7.4,9.8c-0.2,0.2-0.1,0.4-0.1,0.4c0,0,0.1,0.2,0.4,0.1l1.3-0.2l0,0c0.4,0,0.9-0.3,1.1-0.6
			l6.5-8.6C19.2,126.9,18.6,126.6,18,126.2"/>
	</g>
	<g>
		<path fill="#FFFFFF" d="M35.3,132.3l-9.6-7.2c-0.4,0.5-0.9,1-1.5,1.3l8.4,6.4c0.4,0.3,1.1,0.5,1.7,0.4l0.7-0.1
			c0.3,0,0.5-0.1,0.5-0.3C35.6,132.7,35.5,132.5,35.3,132.3"/>
	</g>
	<g>
		<path fill="#FFFFFF" d="M46.3,154c0.1,0.7-0.3,1.3-1,1.4l-38,5.3c-0.6,0.1-1.2-0.4-1.3-1.1l-2.4-16.7c-0.1-0.7,0.3-1.3,1-1.4
			l38-5.3c0.6-0.1,1.2,0.4,1.3,1.1L46.3,154z M44.1,133.2l-41.6,5.9c-1,0.1-1.6,1.1-1.5,2.2l2.9,20.7c0.1,1,1,1.8,2,1.7l41.6-5.9
			c1-0.1,1.6-1.1,1.5-2.2l-2.9-20.7C45.9,133.8,45,133.1,44.1,133.2"/>
	</g>
	<g>
		<g>
			<path fill="#FFFFFF" d="M17.9,149.4c0.2,1.4,0,2.5-0.6,3.4c-0.6,0.9-1.5,1.4-2.8,1.6c-1.3,0.2-2.3-0.1-3.1-0.8
				c-0.8-0.7-1.3-1.7-1.5-3.1c-0.2-1.4,0-2.5,0.6-3.4c0.6-0.9,1.5-1.4,2.8-1.6c1.2-0.2,2.3,0.1,3.1,0.8
				C17.3,146.9,17.7,148,17.9,149.4z M11,150.4c0.2,1.2,0.5,2,1.1,2.5c0.6,0.5,1.4,0.7,2.3,0.6c1-0.1,1.6-0.5,2-1.2
				c0.4-0.7,0.5-1.6,0.4-2.8c-0.2-1.2-0.5-2-1.1-2.5c-0.6-0.5-1.3-0.7-2.3-0.6c-1,0.1-1.6,0.5-2,1.2C11,148.3,10.8,149.2,11,150.4z"
				/>
		</g>
		<g>
			<path fill="#FFFFFF" d="M24.7,146.6c0.1,0.9-0.1,1.6-0.6,2.1c-0.5,0.5-1.4,0.9-2.5,1l-1,0.1l0.5,3.4l-1,0.1l-1.2-8.6l2.2-0.3
				C23.3,144.2,24.5,144.9,24.7,146.6z M20.5,149.1l0.9-0.1c0.9-0.1,1.5-0.4,1.9-0.7c0.4-0.4,0.5-0.8,0.4-1.5
				c-0.1-0.6-0.3-1-0.7-1.2c-0.4-0.2-1-0.3-1.8-0.2l-1.1,0.1L20.5,149.1z"/>
		</g>
		<g>
			<path fill="#FFFFFF" d="M31.9,151.9l-4.8,0.7l-1.2-8.6l4.8-0.7l0.1,0.9l-3.8,0.5l0.4,2.8L31,147l0.1,0.9l-3.6,0.5l0.5,3.2
				l3.8-0.5L31.9,151.9z"/>
		</g>
		<g>
			<path fill="#FFFFFF" d="M40.2,150.7l-1.1,0.2l-5.7-6.6h0c0.2,0.9,0.3,1.6,0.4,2.3l0.7,4.9l-0.9,0.1l-1.2-8.6l1.1-0.2l5.7,6.6h0
				c0-0.1-0.1-0.5-0.2-1c-0.1-0.5-0.2-1-0.2-1.2l-0.7-5l1-0.1L40.2,150.7z"/>
		</g>
	</g>
</g>
<g>
	<g>
		<path fill="#FFFFFF" d="M11,287.6c-3.8,0-7-3.2-7-7c0-3.8,3.2-7,7-7c3.8,0,7,3.2,7,7C18,284.4,14.8,287.6,11,287.6 M11,270.6
			c-5.6,0-10,4.4-10,10c0,5.6,4.4,10,10,10c5.6,0,10-4.4,10-10C21,275,16.6,270.6,11,270.6 M30.6,266.6H39V263h-6.4l-3.8-6.6
			c-0.6-1-1.6-1.6-3-1.6c-1,0-1.8,0.4-2.4,1l-7.4,7.4c-0.6,0.6-1,1.4-1,2.4c0,1.2,0.6,2.4,1.6,3l6.8,4v10h3.6v-13l-4.4-3.4l4.6-4.6
			L30.6,266.6z M39,287.6c-3.8,0-7-3.2-7-7c0-3.8,3.2-7,7-7c3.8,0,7,3.2,7,7C46,284.4,42.8,287.6,39,287.6 M39,270.6
			c-5.6,0-10,4.4-10,10c0,5.6,4.4,10,10,10s10-4.4,10-10C49,275,44.6,270.6,39,270.6 M33,256.2c2,0,3.6-1.6,3.6-3.6
			c0-2-1.6-3.6-3.6-3.6s-3.6,1.6-3.6,3.6C29.4,254.6,31,256.2,33,256.2"/>
	</g>
</g>
<g>
	<g>
		<path d="M18.9,345.3c-2,0-3.7-0.7-4.8-1.8c-0.7-0.7-1.5-2.1-1.4-4.3c0.2-2.7,1.4-4.3,2.6-5.8c1.2-1.6,2.4-3,2.5-6.1
			c0.2-6.1,4.5-8.1,6.7-8.4c0.2,0,0.7-0.1,1.3-0.1c1.7,0,5.7,0.6,7.7,6c1.1,2.9,2.6,4,4.3,5.1c1.5,1,3.2,2.2,4.2,4.7
			c1,2.4,0.3,4.2-0.4,5.2c-1.4,2-4,2.9-6,2.9c-0.2,0-0.5,0-0.7,0c-0.3,0-0.7,0-1.1,0c-2.2,0-5.1,0.4-5.4,0.4c-1.3,0.2-4.8,1-6.4,1.7
			C21.1,345.1,20,345.3,18.9,345.3z M25.8,321.8c-0.5,0-0.7,0.1-0.8,0.1l-0.2,0c-0.4,0-4,0.6-4.2,5.6c-0.1,4-1.8,6.1-3.1,7.8
			c-1,1.3-1.8,2.4-1.9,4.1c-0.1,0.9,0.1,1.6,0.6,2.1c0.5,0.6,1.5,0.9,2.7,0.9c0.8,0,1.5-0.2,1.8-0.3c2.3-1,6.9-1.8,7.1-1.9l0.1,0
			c0.1,0,3.3-0.4,5.8-0.4c0.6,0,1.1,0,1.5,0.1c0.1,0,0.2,0,0.4,0c1.2,0,2.8-0.6,3.5-1.6c0.5-0.7,0.5-1.5,0.1-2.5
			c-0.6-1.7-1.7-2.4-3.1-3.3c-1.8-1.2-4-2.7-5.4-6.5C29.5,322.5,27.4,321.8,25.8,321.8z M9.3,333.4L9.3,333.4c-2.7,0-5.4-1.6-7-4.3
			c-2.3-3.9-1.6-8.5,1.6-10.5c0.9-0.6,2-0.9,3.1-0.9c2.7,0,5.4,1.6,7,4.3c2.3,3.9,1.6,8.5-1.6,10.5C11.5,333.1,10.4,333.4,9.3,333.4
			z M7,320.7c-0.6,0-1.1,0.1-1.5,0.4c-1.8,1.1-2,4-0.6,6.4c1,1.7,2.8,2.8,4.4,2.8c0.6,0,1.1-0.1,1.5-0.4c1.7-1.1,2-4,0.5-6.4
			C10.4,321.9,8.6,320.7,7,320.7z M41.6,328.3L41.6,328.3c-0.4,0-0.9,0-1.3-0.1c-1.8-0.4-3.3-1.7-4.2-3.5c-0.8-1.7-1-3.8-0.5-5.9
			c0.9-3.8,4-6.5,7.2-6.5c0.4,0,0.9,0,1.3,0.1c1.6,0.4,2.9,1.4,3.8,2.8c1.1,1.9,1.5,4.3,0.9,6.7C47.8,325.6,44.8,328.3,41.6,328.3z
			 M42.7,315.1c-1.8,0-3.7,1.8-4.3,4.3c-0.3,1.4-0.2,2.8,0.3,4c0.5,1,1.3,1.7,2.2,1.9c0.2,0,0.4,0.1,0.6,0.1c1.8,0,3.7-1.8,4.3-4.3
			c0.4-1.6,0.2-3.2-0.5-4.4c-0.3-0.6-1-1.3-2-1.5C43.1,315.1,42.9,315.1,42.7,315.1z M16.4,319.5C16.4,319.5,16.4,319.5,16.4,319.5
			c-2.9,0-5.7-2-7.1-5c-1.9-4.1-0.7-8.7,2.7-10.3c0.8-0.4,1.6-0.5,2.5-0.5c2.9,0,5.7,2,7.1,5c1.9,4.1,0.7,8.7-2.7,10.2
			C18.1,319.3,17.2,319.5,16.4,319.5z M14.4,306.7c-0.4,0-0.8,0.1-1.2,0.3c-1.9,0.9-2.4,3.7-1.2,6.3c0.9,2,2.8,3.3,4.5,3.3l0,0
			c0.4,0,0.8-0.1,1.2-0.3c1.9-0.9,2.5-3.7,1.2-6.3C17.9,308,16.1,306.7,14.4,306.7z M30.8,317.3C30.8,317.3,30.8,317.3,30.8,317.3
			c-0.2,0-0.5,0-0.7,0c-3.7-0.5-6.2-4.4-5.7-8.9c0.5-4.2,3.5-7.3,7-7.3c0.2,0,0.5,0,0.7,0c1.6,0.2,3,1.1,4.1,2.4
			c1.3,1.7,1.9,4.1,1.6,6.5C37.3,314.1,34.3,317.3,30.8,317.3z M31.4,304c-2,0-3.7,2.1-4,4.7c-0.3,2.9,1.1,5.4,3.1,5.6
			c2.1,0.3,4.1-1.9,4.4-4.7c0.2-1.7-0.2-3.2-1-4.4c-0.4-0.5-1.1-1.2-2.1-1.3C31.6,304,31.5,304,31.4,304z"/>
	</g>
</g>
<g>
	<g>
		<path d="M25,92.6c-4.9,0-9-4-9-9c0-4.9,4-9,9-9s9,4,9,9C34,88.6,29.9,92.6,25,92.6 M25,71.6c-6.6,0-12,5.4-12,12
			c0,6.6,5.4,12,12,12s12-5.4,12-12C37,77,31.6,71.6,25,71.6"/>
	</g>
	<g>
		<path d="M25,71.3c0.8,0,1.5-0.7,1.5-1.5v-8.2c0-0.8-0.7-1.5-1.5-1.5s-1.5,0.7-1.5,1.5v8.2C23.5,70.6,24.2,71.3,25,71.3"/>
	</g>
	<g>
		<path d="M25,96.7c-0.8,0-1.5,0.7-1.5,1.5v8.2c0,0.8,0.7,1.5,1.5,1.5s1.5-0.7,1.5-1.5v-8.2C26.5,97.4,25.8,96.7,25,96.7"/>
	</g>
	<g>
		<path d="M13.8,75c0.3,0.3,0.7,0.5,1.1,0.5s0.8-0.2,1.1-0.5c0.6-0.6,0.6-1.6,0-2.2L10.3,67c-0.3-0.3-0.7-0.5-1.1-0.5
			c-0.4,0-0.8,0.2-1.1,0.5c-0.3,0.3-0.5,0.7-0.5,1.1S7.7,69,8,69.3L13.8,75z"/>
	</g>
	<g>
		<path d="M36.2,93c-0.3-0.3-0.7-0.5-1.1-0.5c-0.4,0-0.8,0.2-1.1,0.5c-0.3,0.3-0.5,0.7-0.5,1.1s0.2,0.8,0.5,1.1l5.8,5.8
			c0.3,0.3,0.7,0.5,1.1,0.5c0.4,0,0.8-0.2,1.1-0.5c0.3-0.3,0.5-0.7,0.5-1.1s-0.2-0.8-0.5-1.1L36.2,93z"/>
	</g>
	<g>
		<path d="M12.3,84c0-0.8-0.7-1.5-1.5-1.5H2.5C1.7,82.5,1,83.2,1,84c0,0.8,0.7,1.5,1.5,1.5h8.2C11.6,85.5,12.3,84.8,12.3,84"/>
	</g>
	<g>
		<path d="M47.5,82.5h-8.2c-0.8,0-1.5,0.7-1.5,1.5c0,0.8,0.7,1.5,1.5,1.5h8.2c0.8,0,1.5-0.7,1.5-1.5S48.3,82.5,47.5,82.5"/>
	</g>
	<g>
		<path d="M14.9,92.5c-0.4,0-0.8,0.2-1.1,0.5L8,98.8c-0.3,0.3-0.5,0.7-0.5,1.1s0.2,0.8,0.5,1.1c0.3,0.3,0.7,0.5,1.1,0.5
			c0.4,0,0.8-0.2,1.1-0.5l5.8-5.8c0.3-0.3,0.5-0.7,0.5-1.1S16.4,93.3,16,93C15.7,92.7,15.3,92.5,14.9,92.5"/>
	</g>
	<g>
		<path d="M35.1,75.5c0.4,0,0.8-0.2,1.1-0.5l5.8-5.8c0.3-0.3,0.5-0.7,0.5-1.1c0-0.4-0.2-0.8-0.5-1.1c-0.3-0.3-0.7-0.5-1.1-0.5
			c-0.4,0-0.8,0.2-1.1,0.5L34,72.8c-0.3,0.3-0.5,0.7-0.5,1.1s0.2,0.8,0.5,1.1C34.3,75.3,34.7,75.5,35.1,75.5"/>
	</g>
</g>
<g>
	<g>
		<path fill="#FFFFFF" d="M6.4,44.8l2.1-3h32.9l2,3H6.4z M9.1,33.4V13.8c0-0.1,0-0.2,0-0.2l2-8.9c0.1-0.5,0.5-0.8,1-0.8h25.7
			c0.5,0,0.9,0.3,1,0.8l2.1,8.9c0,0.1,0,0.2,0,0.3v19.6c0,0.4-0.3,0.8-0.6,0.9c-0.1,0.1-0.3,0.1-0.4,0.1H10.1c-0.1,0-0.3,0-0.4-0.1
			C9.3,34.2,9.1,33.8,9.1,33.4 M11.4,37.4h27.2l1.7,2.7H9.5L11.4,37.4z M41.7,36.7c1.3-0.8,2.1-2.2,2.1-3.8V14c0-0.4,0-0.7-0.1-1.1
			l-2-8.5l0,0l0,0c-0.5-2-2.3-3.3-4.3-3.3H12.6c-2,0-3.8,1.4-4.3,3.4l0,0l0,0l-2,8.5c-0.1,0.3-0.1,0.7-0.1,1v18.9
			c0,1.6,0.8,3,2.1,3.8l-7,10.2c-0.5,0.8-0.3,1.9,0.4,2.4c0.3,0.2,0.6,0.3,1,0.3c0.6,0,1.1-0.3,1.4-0.8l0.9-1.4h39.8l0.9,1.4
			c0.3,0.5,0.9,0.8,1.4,0.8c0.3,0,0.7-0.1,1-0.3c0.8-0.5,1-1.6,0.4-2.4L41.7,36.7z"/>
	</g>
	<path fill="#FFFFFF" d="M14.8,15.2l1.1-6.1h18.3l1.3,6.1v6.4H14.8V15.2z M34.6,24.4h3.5v-9.6L38,14.5l-1.2-5.4l-0.6-2.7H13.8
		l-0.5,2.8l-1,5.4l-0.1,0.3v9.5H34.6z"/>
	<g>
		<path fill="#FFFFFF" d="M16.7,27.5h-0.9c-0.7,0-1.2,0.6-1.2,1.2v0.9c0,0.7,0.6,1.2,1.2,1.2h0.9c0.7,0,1.2-0.6,1.2-1.2v-0.9
			C17.9,28.1,17.4,27.5,16.7,27.5"/>
		<path fill="#FFFFFF" d="M34.2,27.5h-0.9c-0.7,0-1.2,0.6-1.2,1.2v0.9c0,0.7,0.6,1.2,1.2,1.2h0.9c0.7,0,1.2-0.6,1.2-1.2v-0.9
			C35.5,28.1,34.9,27.5,34.2,27.5"/>
	</g>
</g>
<g>
	<g>
		<path fill="#BFC0C2" d="M6.4,399.8l2.1-3h32.9l2,3H6.4z M9.1,388.4v-19.6c0-0.1,0-0.2,0-0.2l2-8.9c0.1-0.5,0.5-0.8,1-0.8h25.7
			c0.5,0,0.9,0.3,1,0.8l2.1,8.9c0,0.1,0,0.2,0,0.3v19.6c0,0.4-0.3,0.8-0.6,0.9c-0.1,0.1-0.3,0.1-0.4,0.1H10.1c-0.1,0-0.3,0-0.4-0.1
			C9.3,389.2,9.1,388.8,9.1,388.4 M11.4,392.4h27.2l1.7,2.7H9.5L11.4,392.4z M41.7,391.7c1.3-0.8,2.1-2.2,2.1-3.8V369
			c0-0.4,0-0.7-0.1-1.1l-2-8.5l0,0l0,0c-0.5-2-2.3-3.3-4.3-3.3H12.6c-2,0-3.8,1.4-4.3,3.4l0,0l0,0l-2,8.5c-0.1,0.3-0.1,0.7-0.1,1
			v18.9c0,1.6,0.8,3,2.1,3.8l-7,10.2c-0.5,0.8-0.3,1.9,0.4,2.4c0.3,0.2,0.6,0.3,1,0.3c0.6,0,1.1-0.3,1.4-0.8l0.9-1.4h39.8l0.9,1.4
			c0.3,0.5,0.9,0.8,1.4,0.8c0.3,0,0.7-0.1,1-0.3c0.8-0.5,1-1.6,0.4-2.4L41.7,391.7z"/>
	</g>
	<path fill="#BFC0C2" d="M14.8,370.2l1.1-6.1h18.3l1.3,6.1v6.4H14.8V370.2z M34.6,379.4h3.5v-9.6l-0.1-0.4l-1.2-5.4l-0.6-2.7H13.8
		l-0.5,2.8l-1,5.4l-0.1,0.3v9.5H34.6z"/>
	<g>
		<path fill="#BFC0C2" d="M16.7,382.5h-0.9c-0.7,0-1.2,0.6-1.2,1.2v0.9c0,0.7,0.6,1.2,1.2,1.2h0.9c0.7,0,1.2-0.6,1.2-1.2v-0.9
			C17.9,383.1,17.4,382.5,16.7,382.5"/>
		<path fill="#BFC0C2" d="M34.2,382.5h-0.9c-0.7,0-1.2,0.6-1.2,1.2v0.9c0,0.7,0.6,1.2,1.2,1.2h0.9c0.7,0,1.2-0.6,1.2-1.2v-0.9
			C35.5,383.1,34.9,382.5,34.2,382.5"/>
	</g>
</g>
<g>
	<g>
		<path fill="#FFFFFF" d="M25,447.6c-4.9,0-9-4-9-9c0-4.9,4-9,9-9s9,4,9,9C34,443.6,29.9,447.6,25,447.6 M25,426.6
			c-6.6,0-12,5.4-12,12c0,6.6,5.4,12,12,12s12-5.4,12-12C37,432,31.6,426.6,25,426.6"/>
	</g>
	<g>
		<path fill="#FFFFFF" d="M25,426.3c0.8,0,1.5-0.7,1.5-1.5v-8.2c0-0.8-0.7-1.5-1.5-1.5s-1.5,0.7-1.5,1.5v8.2
			C23.5,425.6,24.2,426.3,25,426.3"/>
	</g>
	<g>
		<path fill="#FFFFFF" d="M25,451.7c-0.8,0-1.5,0.7-1.5,1.5v8.2c0,0.8,0.7,1.5,1.5,1.5s1.5-0.7,1.5-1.5v-8.2
			C26.5,452.4,25.8,451.7,25,451.7"/>
	</g>
	<g>
		<path fill="#FFFFFF" d="M13.8,430c0.3,0.3,0.7,0.5,1.1,0.5s0.8-0.2,1.1-0.5c0.6-0.6,0.6-1.6,0-2.2l-5.8-5.8
			c-0.3-0.3-0.7-0.5-1.1-0.5c-0.4,0-0.8,0.2-1.1,0.5c-0.3,0.3-0.5,0.7-0.5,1.1c0,0.4,0.2,0.8,0.5,1.1L13.8,430z"/>
	</g>
	<g>
		<path fill="#FFFFFF" d="M36.2,448c-0.3-0.3-0.7-0.5-1.1-0.5c-0.4,0-0.8,0.2-1.1,0.5c-0.3,0.3-0.5,0.7-0.5,1.1
			c0,0.4,0.2,0.8,0.5,1.1l5.8,5.8c0.3,0.3,0.7,0.5,1.1,0.5c0.4,0,0.8-0.2,1.1-0.5c0.3-0.3,0.5-0.7,0.5-1.1c0-0.4-0.2-0.8-0.5-1.1
			L36.2,448z"/>
	</g>
	<g>
		<path fill="#FFFFFF" d="M12.3,439c0-0.8-0.7-1.5-1.5-1.5H2.5c-0.8,0-1.5,0.7-1.5,1.5s0.7,1.5,1.5,1.5h8.2
			C11.6,440.5,12.3,439.8,12.3,439"/>
	</g>
	<g>
		<path fill="#FFFFFF" d="M47.5,437.5h-8.2c-0.8,0-1.5,0.7-1.5,1.5s0.7,1.5,1.5,1.5h8.2c0.8,0,1.5-0.7,1.5-1.5
			C49,438.2,48.3,437.5,47.5,437.5"/>
	</g>
	<g>
		<path fill="#FFFFFF" d="M14.9,447.5c-0.4,0-0.8,0.2-1.1,0.5L8,453.8c-0.3,0.3-0.5,0.7-0.5,1.1c0,0.4,0.2,0.8,0.5,1.1
			c0.3,0.3,0.7,0.5,1.1,0.5c0.4,0,0.8-0.2,1.1-0.5l5.8-5.8c0.3-0.3,0.5-0.7,0.5-1.1c0-0.4-0.2-0.8-0.5-1.1
			C15.7,447.7,15.3,447.5,14.9,447.5"/>
	</g>
	<g>
		<path fill="#FFFFFF" d="M35.1,430.5c0.4,0,0.8-0.2,1.1-0.5l5.8-5.8c0.3-0.3,0.5-0.7,0.5-1.1c0-0.4-0.2-0.8-0.5-1.1
			c-0.3-0.3-0.7-0.5-1.1-0.5c-0.4,0-0.8,0.2-1.1,0.5l-5.8,5.8c-0.3,0.3-0.5,0.7-0.5,1.1c0,0.4,0.2,0.8,0.5,1.1
			C34.3,430.3,34.7,430.5,35.1,430.5"/>
	</g>
</g>
<g>
	<g>
		<path fill="#BFC0C2" d="M21.7,479.1c-1.4,0.2-2.6-0.8-2.8-2.1c-0.2-1.4,0.8-2.6,2.1-2.8s2.6,0.8,2.8,2.1
			C24,477.6,23,478.9,21.7,479.1 M20.8,473c-2,0.3-3.3,2-3,4.1c0.3,2,2,3.3,4.1,3s3.3-2,3-4.1C24.6,474.1,22.8,472.8,20.8,473"/>
	</g>
	<g>
		<path fill="#BFC0C2" d="M18,481.2l-7.4,9.8c-0.2,0.2-0.1,0.4-0.1,0.4c0,0,0.1,0.2,0.4,0.1l1.3-0.2l0,0c0.4,0,0.9-0.3,1.1-0.6
			l6.5-8.6C19.2,481.9,18.6,481.6,18,481.2"/>
	</g>
	<g>
		<path fill="#BFC0C2" d="M35.3,487.3l-9.6-7.2c-0.4,0.5-0.9,1-1.5,1.3l8.4,6.4c0.4,0.3,1.1,0.5,1.7,0.4l0.7-0.1
			c0.3,0,0.5-0.1,0.5-0.3C35.6,487.7,35.5,487.5,35.3,487.3"/>
	</g>
	<g>
		<path fill="#BFC0C2" d="M46.3,509c0.1,0.7-0.3,1.3-1,1.4l-38,5.3c-0.6,0.1-1.2-0.4-1.3-1.1l-2.4-16.7c-0.1-0.7,0.3-1.3,1-1.4
			l38-5.3c0.6-0.1,1.2,0.4,1.3,1.1L46.3,509z M44.1,488.2l-41.6,5.9c-1,0.1-1.6,1.1-1.5,2.2l2.9,20.7c0.1,1,1,1.8,2,1.7l41.6-5.9
			c1-0.1,1.6-1.1,1.5-2.2l-2.9-20.7C45.9,488.8,45,488.1,44.1,488.2"/>
	</g>
	<g>
		<g>
			<path fill="#BFC0C2" d="M17.9,504.4c0.2,1.4,0,2.5-0.6,3.4c-0.6,0.9-1.5,1.4-2.8,1.6c-1.3,0.2-2.3-0.1-3.1-0.8
				c-0.8-0.7-1.3-1.7-1.5-3.1c-0.2-1.4,0-2.5,0.6-3.4c0.6-0.9,1.5-1.4,2.8-1.6c1.2-0.2,2.3,0.1,3.1,0.8
				C17.3,501.9,17.7,503,17.9,504.4z M11,505.4c0.2,1.2,0.5,2,1.1,2.5c0.6,0.5,1.4,0.7,2.3,0.6c1-0.1,1.6-0.5,2-1.2s0.5-1.6,0.4-2.8
				c-0.2-1.2-0.5-2-1.1-2.5c-0.6-0.5-1.3-0.7-2.3-0.6c-1,0.1-1.6,0.5-2,1.2C11,503.3,10.8,504.2,11,505.4z"/>
		</g>
		<g>
			<path fill="#BFC0C2" d="M24.7,501.6c0.1,0.9-0.1,1.6-0.6,2.1c-0.5,0.5-1.4,0.9-2.5,1l-1,0.1l0.5,3.4l-1,0.1l-1.2-8.6l2.2-0.3
				C23.3,499.2,24.5,499.9,24.7,501.6z M20.5,504.1l0.9-0.1c0.9-0.1,1.5-0.4,1.9-0.7c0.4-0.4,0.5-0.8,0.4-1.5
				c-0.1-0.6-0.3-1-0.7-1.2s-1-0.3-1.8-0.2l-1.1,0.1L20.5,504.1z"/>
		</g>
		<g>
			<path fill="#BFC0C2" d="M31.9,506.9l-4.8,0.7l-1.2-8.6l4.8-0.7l0.1,0.9l-3.8,0.5l0.4,2.8L31,502l0.1,0.9l-3.6,0.5l0.5,3.2
				l3.8-0.5L31.9,506.9z"/>
		</g>
		<g>
			<path fill="#BFC0C2" d="M40.2,505.7l-1.1,0.2l-5.7-6.6h0c0.2,0.9,0.3,1.6,0.4,2.3l0.7,4.9l-0.9,0.1l-1.2-8.6l1.1-0.2l5.7,6.6h0
				c0-0.1-0.1-0.5-0.2-1c-0.1-0.5-0.2-1-0.2-1.2l-0.7-5l1-0.1L40.2,505.7z"/>
		</g>
	</g>
</g>
</svg>
