<svg id="Layer_1" data-name="Layer 1" xmlns="http://www.w3.org/2000/svg" xmlns:xlink="http://www.w3.org/1999/xlink" viewBox="0 0 231.06 56.48"><defs><clipPath id="clip-path" transform="translate(-155 -357.52)"><rect x="155" y="358.65" width="251.1" height="55.35" style="fill:none"/></clipPath></defs><title>grady-management</title><g style="clip-path:url(#clip-path)"><path d="M189.22,408.82a.84.84,0,0,0-.43-.08h-.3v.77h.32a.89.89,0,0,0,.34,0,.4.4,0,0,0,.07-.65m-.38-.34a1.41,1.41,0,0,1,.54.08.54.54,0,0,1,.31.55.49.49,0,0,1-.19.43.7.7,0,0,1-.29.11.47.47,0,0,1,.34.21.64.64,0,0,1,.11.33v.16c0,.05,0,.1,0,.16a.32.32,0,0,0,0,.11v0h-.33v-.29a.55.55,0,0,0-.19-.5.81.81,0,0,0-.39-.07h-.28v.85h-.35v-2.16Zm-1.07-.11a1.7,1.7,0,0,0-.45,1.2,1.73,1.73,0,0,0,.45,1.2,1.47,1.47,0,0,0,2.21,0,1.73,1.73,0,0,0,.45-1.2,1.71,1.71,0,0,0-.45-1.2,1.47,1.47,0,0,0-2.21,0m2.38,2.59a1.71,1.71,0,0,1-2.56,0,2,2,0,0,1-.52-1.4,2,2,0,0,1,.53-1.38,1.71,1.71,0,0,1,2.56,0,2,2,0,0,1,.53,1.38,2,2,0,0,1-.53,1.4" transform="translate(-155 -357.52)" style="fill:#7d7e81"/><path d="M200.29,388c0,.39-.08.54-.34.54s-.3-6.49-3.85-6.49c-1.26,0-3,1.81-3,9.35,0,4.08.94,9.49,3.13,9.49,2.43,0,2.47-2.5,2.47-4.23,0-4.64-1.61-2.62-1.61-3.75,0-.86.43-.62.66-.62.63,0,1.26.12,1.89.12s1-.12,1.46-.12c.07,0,.15.12.15.42,0,1.28-.93-.33-.93,3.48,0,1.22,0,2.05,0,2.47s0,.62-.13.77c-1.28,1.55-2.78,2.92-4.25,2.92-4,0-4.56-7.62-4.56-10,0-5,1.39-11.58,4.79-11.58,1.88,0,3,1.93,3.38,1.93s.32-.83.54-.83.2.66.2,1.13Z" transform="translate(-155 -357.52)" style="fill:#7d7e81"/><path d="M204.76,390.19c0,.74.5.74.9.74,2.05,0,2.13-1.67,2.13-3.42,0-2.92-.76-5.12-2.12-5.12-.5,0-.92,0-.92,1.79Zm-1.66-5.33c0-3.33-1.47-2.23-1.47-3.3,0-.3.13-.45.3-.45.62,0,.73.12,1.58.12s1.82-.12,2.73-.12c3,0,3.23,4.2,3.23,5.57a7.45,7.45,0,0,1-.78,3.72c-.39.68-.78,1-.78,1.25s1.15,4.5,2.12,8.25c.12.48.38.48.49.48s.27-.18.4-.18.2.18.2.42a1.66,1.66,0,0,1-1.43,1.58c-1.07,0-1.5-1.88-1.92-3.6l-1.13-4.7c-.31-1.31-.55-1.58-1.23-1.58s-.63.21-.63,1.25v5.15c0,3.18,1.33,2,1.33,3,0,.27-.11.45-.42.45s-.59-.12-1.16-.12c-.73,0-1.4.12-2.08.12-.15,0-.43.09-.43-.51,0-1,1.09,0,1.09-3.72Z" transform="translate(-155 -357.52)" style="fill:#7d7e81"/><path d="M216.92,393.25c.24,0,.43,0,.43-.27a5.54,5.54,0,0,0-.15-1.1l-1.11-5.39c-.08-.24,0-.24-.11-.24s-.08,0-.15.36l-1,5.27a5.46,5.46,0,0,0-.15,1.1c0,.3.19.27.43.27Zm-2.24,1.61c-.23,0-.51.12-.82,2.09a17.34,17.34,0,0,0-.28,2.35c0,2.14,1.46,1.67,1.46,2.47,0,.62-.42.41-.7.41s-.84-.12-1.27-.12-.8.12-1.19.12c-.19,0-.4.06-.4-.33,0-.68.69-.51,1-2.17l3.66-18c.1-.48.16-1,.34-1s.15.06.32,1l3.65,18.22c.43,2.11,1.16,1,1.16,1.93,0,.5-.12.45-.49.45s-.85-.12-1.74-.12c-.59,0-1.09.12-1.49.12s-.42.06-.42-.36c0-.86,1-.54,1-2.35a10.34,10.34,0,0,0-.24-2c-.44-2.32-.51-2.62-.86-2.62Z" transform="translate(-155 -357.52)" style="fill:#7d7e81"/><path d="M225,398.88c0,2,1,2.17,1.53,2.17,2.1,0,3.6-3,3.6-9.2,0-2.83-.66-9.61-4-9.61-1,0-1.09.74-1.09,2.8Zm-1.66-14.14c0-3-1.44-2.05-1.44-3.15,0-.3.15-.48.24-.48a13.63,13.63,0,0,0,1.86.12c.7,0,1.39-.12,2.09-.12,1.81,0,5.74.48,5.74,9.79,0,8.6-3.52,11.28-5,11.28s-2.32-.12-2.82-.12-.82.12-1.24.12c-.23,0-.54.12-.54-.41,0-1.13,1.08,0,1.08-2.68Z" transform="translate(-155 -357.52)" style="fill:#7d7e81"/><path d="M233.8,383.82c-.53-2.14-1.35-1.4-1.35-2.35,0-.36.16-.36.47-.36a11.79,11.79,0,0,0,1.24.12,12.46,12.46,0,0,0,2-.12c.19,0,.23.21.23.39,0,.68-.74.45-.74,1.46a6.22,6.22,0,0,0,.19,1.37l1.22,5.54c.22,1,.31,1.37.42,1.37s.17-.24.34-.89l1.23-4.91a5.83,5.83,0,0,0,.24-1.64c0-2-1.31-1.31-1.31-2.23,0-.3.09-.45.26-.45a7.49,7.49,0,0,0,1.16.12,14.73,14.73,0,0,0,1.55-.12c.17,0,.24.12.24.33,0,.8-.61.21-1.4,3.48L238,392.3a6.45,6.45,0,0,0-.18,1.88v4.43c0,3.75,1.66,1.7,1.66,3.22,0,.33-.2.36-.43.36a9.62,9.62,0,0,0-2-.12c-1.22,0-1.61.12-2,.12-.22,0-.36-.06-.36-.33,0-1.34,1.47.3,1.47-3.48V394.5a6,6,0,0,0-.22-1.88Z" transform="translate(-155 -357.52)" style="fill:#7d7e81"/><path d="M247,397.12c-.08,5.09,1.4,3.36,1.4,4.58,0,.12.05.47-.32.47s-.77-.12-1.39-.12-1.13.12-1.34.12-.26-.24-.26-.42c0-1.07,1.11-.33,1.16-3.45l.19-12c.08-4.91-1.36-3.51-1.36-4.82,0-.18.07-.42.16-.42a5.58,5.58,0,0,0,.81.12c.31,0,.81-.12,1.26-.12.15,0,.28,0,.47.86l3,14.29c.05.27.09.48.18.48s.2-.54.22-.62l3.13-14.4c0-.21.08-.6.34-.6s.58.12.78.12.5-.12.88-.12.39.12.39.36c0,1.07-1.32-.09-1.27,3.33l.23,13.19c.07,3.9,1.31,2.59,1.31,3.69,0,.51-.18.51-.65.51s-.77-.12-1.16-.12c-.88,0-1.2.12-1.51.12s-.62.09-.62-.45c0-1,1.05,0,1-3.33l-.2-9c0-.89,0-1.34-.11-1.34a6.62,6.62,0,0,0-.42,1.58l-2.55,11.76c-.08.39-.14.83-.35.83s-.27-.51-.34-.83l-2.62-12.83c0-.18-.09-.51-.15-.51s-.1.54-.1.75Z" transform="translate(-155 -357.52)" style="fill:#7d7e81"/><path d="M262.68,393.25c.24,0,.43,0,.43-.27a5.54,5.54,0,0,0-.15-1.1l-1.11-5.39c-.08-.24,0-.24-.11-.24s-.08,0-.15.36l-1,5.27a5.61,5.61,0,0,0-.15,1.1c0,.3.19.27.43.27Zm-2.24,1.61c-.23,0-.51.12-.82,2.09a17.34,17.34,0,0,0-.28,2.35c0,2.14,1.46,1.67,1.46,2.47,0,.62-.42.41-.7.41s-.84-.12-1.27-.12-.8.12-1.19.12c-.19,0-.4.06-.4-.33,0-.68.69-.51,1-2.17l3.66-18c.09-.48.16-1,.34-1s.15.06.32,1l3.65,18.22c.43,2.11,1.16,1,1.16,1.93,0,.5-.12.45-.49.45s-.85-.12-1.74-.12c-.6,0-1.09.12-1.49.12s-.42.06-.42-.36c0-.86,1-.54,1-2.35a10.35,10.35,0,0,0-.24-2c-.44-2.32-.51-2.62-.86-2.62Z" transform="translate(-155 -357.52)" style="fill:#7d7e81"/><path d="M269.15,386.82c0-5.72-1.51-3.78-1.51-5.21,0-.27.07-.51.23-.51s.5.12.76.12.7-.12,1.42-.12c.43,0,.27.21.51.77L276,395c.18.42.34.77.42.77s.11-.36.11-1.1v-9.91c0-2.71-1.65-2.17-1.65-3.16,0-.21,0-.51.22-.51a12.59,12.59,0,0,0,1.54.12,10,10,0,0,0,1.44-.12c.26,0,.26.3.26.39,0,.89-1.15.18-1.15,3.3v16.7c0,.66,0,.89-.16.89s-.26-.18-.35-.42l-6.49-15.48c-.09-.24-.18-.39-.24-.39s-.11.21-.11.48V396.7c0,5.71,1.73,3.69,1.73,5.09,0,.42-.34.39-.51.39-.66,0-1.12-.12-1.59-.12s-.8.12-1.16.12c-.15,0-.42.15-.42-.36,0-1.19,1.3-.65,1.3-3.69Z" transform="translate(-155 -357.52)" style="fill:#7d7e81"/><path d="M284.43,393.25c.24,0,.43,0,.43-.27a5.46,5.46,0,0,0-.15-1.1l-1.11-5.39c-.08-.24,0-.24-.11-.24s-.08,0-.15.36l-1,5.27a5.61,5.61,0,0,0-.15,1.1c0,.3.19.27.43.27Zm-2.24,1.61c-.23,0-.51.12-.82,2.09a17.34,17.34,0,0,0-.28,2.35c0,2.14,1.46,1.67,1.46,2.47,0,.62-.42.41-.7.41s-.84-.12-1.27-.12-.8.12-1.19.12c-.19,0-.41.06-.41-.33,0-.68.69-.51,1-2.17l3.66-18c.09-.48.16-1,.33-1s.15.06.32,1L288,399.8c.43,2.11,1.16,1,1.16,1.93,0,.5-.12.45-.48.45s-.85-.12-1.74-.12c-.59,0-1.09.12-1.48.12s-.42.06-.42-.36c0-.86,1-.54,1-2.35a10.35,10.35,0,0,0-.24-2c-.45-2.32-.51-2.62-.86-2.62Z" transform="translate(-155 -357.52)" style="fill:#7d7e81"/><path d="M298.55,388c0,.39-.08.54-.34.54s-.3-6.49-3.85-6.49c-1.25,0-3,1.81-3,9.35,0,4.08.95,9.49,3.13,9.49,2.43,0,2.47-2.5,2.47-4.23,0-4.64-1.61-2.62-1.61-3.75,0-.86.43-.62.66-.62.63,0,1.25.12,1.89.12s1-.12,1.46-.12c.07,0,.15.12.15.42,0,1.28-.93-.33-.93,3.48,0,1.22,0,2.05,0,2.47s0,.62-.13.77c-1.28,1.55-2.78,2.92-4.25,2.92-4,0-4.56-7.62-4.56-10,0-5,1.39-11.58,4.79-11.58,1.88,0,3,1.93,3.38,1.93s.32-.83.54-.83.2.66.2,1.13Z" transform="translate(-155 -357.52)" style="fill:#7d7e81"/><path d="M303,388.76c0,1.28,0,1.49.58,1.49h.85c1.16,0,1.2-2.74,1.47-2.74.1,0,.24-.06.26.74l.09,5.3c0,.39.1,1.46-.23,1.46s-.06-3.16-1.46-3.16h-1c-.62,0-.57.36-.57,2.08v3.81c0,1.85-.05,2.92.92,2.92,3.35,0,3.16-3.9,3.67-3.9.05,0,.15.09.15.66,0,2.32-.8,4.76-1.9,4.76-2.05,0-2.86-.12-3.54-.12-.42,0-1,.12-1.73.12-.18,0-.26-.15-.26-.33,0-1.37,1,.24,1-3.39V384.53c0-2.68-1.53-1.73-1.53-2.92,0-.27.11-.51.3-.51.55,0,1.52.12,3.59.12,1,0,1.89-.12,3.08-.12.18,0,.27.3.27.57l.06,2.95c0,.39.08,1.37-.23,1.37-.64,0,.42-3.48-2.19-3.48-1.63,0-1.69,0-1.69,2.08Z" transform="translate(-155 -357.52)" style="fill:#7d7e81"/><path d="M310,397.12c-.08,5.09,1.4,3.36,1.4,4.58,0,.12.05.47-.32.47s-.77-.12-1.39-.12-1.13.12-1.33.12-.26-.24-.26-.42c0-1.07,1.11-.33,1.16-3.45l.19-12c.08-4.91-1.36-3.51-1.36-4.82,0-.18.07-.42.16-.42a5.57,5.57,0,0,0,.81.12c.31,0,.81-.12,1.26-.12.15,0,.28,0,.47.86l3,14.29c.05.27.09.48.17.48s.2-.54.22-.62l3.13-14.4c0-.21.08-.6.34-.6s.58.12.78.12.5-.12.88-.12.39.12.39.36c0,1.07-1.32-.09-1.27,3.33l.23,13.19c.07,3.9,1.31,2.59,1.31,3.69,0,.51-.18.51-.65.51s-.77-.12-1.16-.12c-.88,0-1.2.12-1.51.12s-.62.09-.62-.45c0-1,1.05,0,1-3.33l-.2-9c0-.89,0-1.34-.11-1.34a6.73,6.73,0,0,0-.42,1.58l-2.55,11.76c-.08.39-.13.83-.35.83s-.27-.51-.34-.83l-2.62-12.83c0-.18-.1-.51-.15-.51s-.09.54-.09.75Z" transform="translate(-155 -357.52)" style="fill:#7d7e81"/><path d="M323.24,388.76c0,1.28,0,1.49.58,1.49h.85c1.16,0,1.2-2.74,1.47-2.74.1,0,.24-.06.26.74l.1,5.3c0,.39.09,1.46-.23,1.46s-.05-3.16-1.46-3.16h-1c-.62,0-.57.36-.57,2.08v3.81c0,1.85-.05,2.92.92,2.92,3.35,0,3.16-3.9,3.67-3.9.05,0,.15.09.15.66,0,2.32-.8,4.76-1.9,4.76-2.05,0-2.86-.12-3.54-.12-.42,0-1,.12-1.73.12-.17,0-.26-.15-.26-.33,0-1.37,1,.24,1-3.39V384.53c0-2.68-1.53-1.73-1.53-2.92,0-.27.11-.51.3-.51.55,0,1.52.12,3.59.12,1,0,1.89-.12,3.08-.12.18,0,.27.3.27.57l.05,2.95c0,.39.08,1.37-.23,1.37-.63,0,.42-3.48-2.18-3.48-1.63,0-1.69,0-1.69,2.08Z" transform="translate(-155 -357.52)" style="fill:#7d7e81"/><path d="M329.89,386.82c0-5.72-1.51-3.78-1.51-5.21,0-.27.07-.51.23-.51s.5.12.76.12.7-.12,1.42-.12c.43,0,.27.21.51.77L336.72,395c.18.42.34.77.42.77s.11-.36.11-1.1v-9.91c0-2.71-1.65-2.17-1.65-3.16,0-.21,0-.51.22-.51a12.61,12.61,0,0,0,1.54.12,10,10,0,0,0,1.44-.12c.26,0,.26.3.26.39,0,.89-1.15.18-1.15,3.3v16.7c0,.66,0,.89-.16.89s-.26-.18-.35-.42l-6.49-15.48c-.09-.24-.17-.39-.24-.39s-.11.21-.11.48V396.7c0,5.71,1.73,3.69,1.73,5.09,0,.42-.34.39-.51.39-.66,0-1.12-.12-1.59-.12s-.8.12-1.16.12c-.15,0-.42.15-.42-.36,0-1.19,1.3-.65,1.3-3.69Z" transform="translate(-155 -357.52)" style="fill:#7d7e81"/><path d="M343.59,384.47c0-1.43-.13-1.58-.69-1.58h-1.14c-1.52,0-1.12,3.9-1.73,3.9-.28,0-.2-.66-.18-1l.22-3.93c0-.3,0-.71.22-.71,1.26,0,2.16.12,4.13.12s2.88-.12,4.13-.12c.2,0,.2.42.22.71l.15,2.74c0,.36.17,1.52-.18,1.52-.54,0-.11-3.31-1.66-3.19h-1.15c-.55,0-.69.15-.69,1.58v13.45c0,3.66,1.73,2.8,1.73,3.63s-.27.63-.66.63c-.54,0-1-.12-1.89-.12s-1.35.12-1.89.12c-.24,0-.47,0-.47-.63,0-1.16,1.53.27,1.53-3.27Z" transform="translate(-155 -357.52)" style="fill:#7d7e81"/><path d="M352.23,400.13c0,3-1.51,5.92-2.19,5.92-.08,0-.16-.06-.16-.36,0-.63,1-1.37,1-3.46,0-1.9-1-2.38-1-3a3.59,3.59,0,0,1,.54-1.31c.22-.45.5-1.19.73-1.19.49,0,1,1.67,1,3.42" transform="translate(-155 -357.52)" style="fill:#7d7e81"/><path d="M360.25,398.49c0,3.66,1.51,2.29,1.51,3.24,0,.33-.12.45-.43.45-.5,0-1-.12-2.05-.12-.58,0-1.16.12-1.51.12-.12,0-.15-.21-.15-.36,0-1,1-.27,1-3.1V384.44c0-2.71-1.53-1.87-1.53-2.92,0-.51.34-.42.46-.42.53,0,1.05.12,1.53.12s1-.12,1.74-.12c.41,0,.47.06.47.42,0,1-1-.06-1,2.77Z" transform="translate(-155 -357.52)" style="fill:#7d7e81"/><path d="M363.64,386.82c0-5.72-1.51-3.78-1.51-5.21,0-.27.07-.51.23-.51s.5.12.76.12.7-.12,1.42-.12c.43,0,.27.21.51.77L370.47,395c.17.42.34.77.42.77s.11-.36.11-1.1v-9.91c0-2.71-1.65-2.17-1.65-3.16,0-.21,0-.51.22-.51a12.62,12.62,0,0,0,1.54.12,10,10,0,0,0,1.44-.12c.26,0,.26.3.26.39,0,.89-1.15.18-1.15,3.3v16.7c0,.66,0,.89-.16.89s-.26-.18-.35-.42l-6.49-15.48c-.09-.24-.18-.39-.24-.39s-.11.21-.11.48V396.7c0,5.71,1.73,3.69,1.73,5.09,0,.42-.34.39-.51.39-.66,0-1.12-.12-1.59-.12s-.8.12-1.16.12c-.15,0-.42.15-.42-.36,0-1.19,1.3-.65,1.3-3.69Z" transform="translate(-155 -357.52)" style="fill:#7d7e81"/><path d="M382.36,387.51c0,.3.07,1-.16,1s-.31-.62-.4-1c-.68-2.86-1.87-5.45-3.43-5.45-2,0-3.08,4.17-3.08,8.16,0,4.2,1.08,10.09,3.66,10.09,2.09,0,3-3.9,3.36-3.9.07,0,.19.15.19.33,0,1.19-1.43,5.69-4.3,5.69-4,0-4.56-7.62-4.56-10,0-5,1.39-11.58,4.79-11.58,1.63,0,2.67,1.82,3.08,1.82s.27-1,.46-1a.15.15,0,0,1,.16.18Z" transform="translate(-155 -357.52)" style="fill:#7d7e81"/><path d="M386.06,399.38c0,.74-.88,2.68-1.21,2.68s-1.22-1.94-1.22-2.68.88-2.68,1.22-2.68,1.21,1.93,1.21,2.68" transform="translate(-155 -357.52)" style="fill:#7d7e81"/><path d="M199,409.77h.23l-.53,1.75h-5.77l.07-.23h.15a1.11,1.11,0,0,0,.53-.12.69.69,0,0,0,.3-.27,4.5,4.5,0,0,0,.24-.66l1.34-4.39a3.17,3.17,0,0,0,.15-.64c0-.24-.22-.36-.65-.36h-.2l.07-.23h4.87l0,1.55h-.22a2.3,2.3,0,0,0-.4-.91,1,1,0,0,0-.51-.36,5.93,5.93,0,0,0-1.05-.06h-.88l-.9,3h.5a2.34,2.34,0,0,0,1.08-.2,1.87,1.87,0,0,0,.68-.93h.22l-.83,2.71h-.22a2.59,2.59,0,0,0,.06-.52,1.16,1.16,0,0,0-.1-.58.45.45,0,0,0-.28-.21,3,3,0,0,0-.62,0h-.56l-.65,2.13a3.57,3.57,0,0,0-.16.61.39.39,0,0,0,.24.38,2.15,2.15,0,0,0,.82.11h.4a3,3,0,0,0,1.61-.37,2.73,2.73,0,0,0,.94-1.15" transform="translate(-155 -357.52)" style="fill:#7d7e81"/><path d="M201.11,408.46h-.23a3.43,3.43,0,0,1,.43-.86c.18-.26.36-.4.54-.4a.31.31,0,0,1,.27.16,2.77,2.77,0,0,1,.23.66l.22.85.82-1q.52-.65.77-.65c.15,0,.23.09.23.28a2.37,2.37,0,0,1-.2.88H204a3.1,3.1,0,0,0,.17-.76c0-.07,0-.11-.08-.11s-.23.15-.48.46l-1,1.2.31,1.23a5.65,5.65,0,0,0,.18.64c0,.1.09.15.15.15s.12-.07.21-.22a2.45,2.45,0,0,0,.23-.57H204q-.37,1.29-.92,1.29a.41.41,0,0,1-.36-.22,3.25,3.25,0,0,1-.29-.84l-.21-.85-.93,1.19a4.17,4.17,0,0,1-.52.6.45.45,0,0,1-.26.11c-.16,0-.24-.11-.24-.32a2.07,2.07,0,0,1,.26-.84h.23a2.31,2.31,0,0,0-.24.73c0,.1,0,.15.08.15s.27-.21.59-.63l1-1.28-.27-1.12c-.1-.44-.19-.66-.26-.66s-.27.25-.47.76" transform="translate(-155 -357.52)" style="fill:#7d7e81"/><path d="M207.72,410.08h.2a2.84,2.84,0,0,1-.69,1.16,1.32,1.32,0,0,1-.92.43.8.8,0,0,1-.65-.31,1.35,1.35,0,0,1-.25-.87,4,4,0,0,1,1.28-2.75,1.74,1.74,0,0,1,1.07-.54.64.64,0,0,1,.45.18.56.56,0,0,1,.19.42q0,.36-.29.36c-.19,0-.3-.14-.31-.41s-.08-.3-.23-.3-.41.18-.65.53a5,5,0,0,0-.64,1.41,5.08,5.08,0,0,0-.27,1.34.7.7,0,0,0,.15.47.44.44,0,0,0,.35.17,1,1,0,0,0,.65-.35,2.49,2.49,0,0,0,.56-.94" transform="translate(-155 -357.52)" style="fill:#7d7e81"/><path d="M210.24,409.62a3.92,3.92,0,0,0,1.17-.82,1.45,1.45,0,0,0,.52-.95.45.45,0,0,0-.08-.29.29.29,0,0,0-.23-.1q-.3,0-.71.6a5,5,0,0,0-.66,1.55m1.5.61H212q-.64,1.44-1.65,1.44a.86.86,0,0,1-.67-.29,1.15,1.15,0,0,1-.26-.79,3.75,3.75,0,0,1,.34-1.43,4,4,0,0,1,1-1.37,1.73,1.73,0,0,1,1.08-.58.52.52,0,0,1,.43.18.7.7,0,0,1,.15.45,1.47,1.47,0,0,1-.54,1.06,5.73,5.73,0,0,1-1.63,1,2.69,2.69,0,0,0-.14.84.79.79,0,0,0,.13.49.45.45,0,0,0,.38.16q.69,0,1.22-1.14" transform="translate(-155 -357.52)" style="fill:#7d7e81"/><path d="M214.54,410.21a2.6,2.6,0,0,0-.14.65.67.67,0,0,0,.14.42.46.46,0,0,0,.39.17,1.07,1.07,0,0,0,.76-.43,4,4,0,0,0,.71-1.42,5.34,5.34,0,0,0,.32-1.49,1,1,0,0,0-.1-.49.34.34,0,0,0-.3-.16,1.28,1.28,0,0,0-.73.4,3.82,3.82,0,0,0-.84,1.67Zm-.94-.78h-.23l1-1.54a10.92,10.92,0,0,0,.55-.95,6.8,6.8,0,0,0,.31-.84l.07-.24h.6l-.35,1.13-.43,1.2q.69-1,1.31-1a.78.78,0,0,1,.64.35,1.41,1.41,0,0,1,.26.88,3.9,3.9,0,0,1-.32,1.41,3.38,3.38,0,0,1-.89,1.31,1.74,1.74,0,0,1-1.15.52.66.66,0,0,1-.69-.52l-.6,2a2.35,2.35,0,0,0-.11.45.19.19,0,0,0,.07.15.87.87,0,0,0,.43.06h.23l-.07.23h-2.13l.07-.23h.11a1.29,1.29,0,0,0,.54-.06,1.84,1.84,0,0,0,.26-.64l1.06-3.49q.34-1.09.77-2.23s-.12.2-.27.46l-.16.26Z" transform="translate(-155 -357.52)" style="fill:#7d7e81"/><path d="M221.11,407.35l-.07.23h-.76l-.67,2.21a8.35,8.35,0,0,0-.34,1.28.27.27,0,0,0,.05.18.19.19,0,0,0,.15.06c.12,0,.28-.12.48-.34a3.54,3.54,0,0,0,.53-.86h.22a3.51,3.51,0,0,1-.71,1.16,1.11,1.11,0,0,1-.73.4.51.51,0,0,1-.41-.18.69.69,0,0,1-.16-.46,6.73,6.73,0,0,1,.32-1.28l.66-2.16H219l.07-.23h.7l.47-1.54h.6l-.47,1.54Z" transform="translate(-155 -357.52)" style="fill:#7d7e81"/><path d="M223.15,405a.43.43,0,0,1,.13-.31.45.45,0,0,1,.63,0,.43.43,0,0,1,.13.31.44.44,0,0,1-.13.32.43.43,0,0,1-.32.13.42.42,0,0,1-.32-.14.44.44,0,0,1-.13-.31m.5,5.44h.24a3.14,3.14,0,0,1-.62.88,1.08,1.08,0,0,1-.74.38.59.59,0,0,1-.42-.17.66.66,0,0,1-.18-.5,4.16,4.16,0,0,1,.25-1l.52-1.56a3.46,3.46,0,0,0,.18-.66.22.22,0,0,0,0-.15.2.2,0,0,0-.15-.05q-.2,0-.47.31a2.3,2.3,0,0,0-.39.55h-.24a2.9,2.9,0,0,1,.64-.87,1,1,0,0,1,.67-.32.51.51,0,0,1,.39.16.6.6,0,0,1,.15.43,3.83,3.83,0,0,1-.24,1l-.43,1.33a4.23,4.23,0,0,0-.24.9.35.35,0,0,0,.06.22.2.2,0,0,0,.17.07q.38,0,.89-.89" transform="translate(-155 -357.52)" style="fill:#7d7e81"/><path d="M225.55,410.76a.77.77,0,0,0,.14.47.45.45,0,0,0,.39.19q.68,0,1.11-1.29a6.75,6.75,0,0,0,.44-2,.86.86,0,0,0-.13-.53.48.48,0,0,0-.4-.18q-.63,0-1.09,1.2a6,6,0,0,0-.46,2.11m-.55-.58a3.62,3.62,0,0,1,.29-1.33,2.89,2.89,0,0,1,.82-1.17,1.63,1.63,0,0,1,1-.45.91.91,0,0,1,.75.38,1.68,1.68,0,0,1,.29,1,3.56,3.56,0,0,1-.33,1.5,2.82,2.82,0,0,1-.82,1.09,1.59,1.59,0,0,1-1,.38,1,1,0,0,1-.74-.33,1.59,1.59,0,0,1-.32-1.13" transform="translate(-155 -357.52)" style="fill:#7d7e81"/><path d="M233.2,410.58h.26a3,3,0,0,1-.63.82,1,1,0,0,1-.65.27.59.59,0,0,1-.4-.14.52.52,0,0,1-.17-.42,3.53,3.53,0,0,1,.24-.91l.55-1.55a3.48,3.48,0,0,0,.22-.82.36.36,0,0,0-.07-.25.29.29,0,0,0-.23-.08q-.39,0-1,.91a8.7,8.7,0,0,0-1.07,2.38l-.25.81h-.62l.9-2.89a6.38,6.38,0,0,0,.25-.92.22.22,0,0,0,0-.13.11.11,0,0,0-.1,0q-.3,0-.71.74h-.23q.63-1.16,1.2-1.16a.36.36,0,0,1,.3.12.58.58,0,0,1,.1.37,4.43,4.43,0,0,1-.34,1.36q.92-1.85,1.79-1.85a.71.71,0,0,1,.49.19.69.69,0,0,1,.21.54,3.35,3.35,0,0,1-.21.86l-.55,1.63a5.63,5.63,0,0,0-.22.74.19.19,0,0,0,0,.14.18.18,0,0,0,.14,0,.56.56,0,0,0,.37-.2,2.77,2.77,0,0,0,.43-.58" transform="translate(-155 -357.52)" style="fill:#7d7e81"/><path d="M235.24,410.69a1,1,0,0,0,.1.51.34.34,0,0,0,.31.17,1.29,1.29,0,0,0,.82-.49,4.07,4.07,0,0,0,.82-1.51,5.29,5.29,0,0,0,.35-1.38.61.61,0,0,0-.11-.37.37.37,0,0,0-.32-.15q-.63,0-1.3,1.23a4.47,4.47,0,0,0-.67,2m2.71-3.41h.6l-.95,3a4,4,0,0,0-.21.79.26.26,0,0,0,0,.17.16.16,0,0,0,.14.06c.24,0,.51-.28.81-.83h.21a2.72,2.72,0,0,1-.57.83,1,1,0,0,1-.68.37.42.42,0,0,1-.37-.18.73.73,0,0,1-.13-.44,2,2,0,0,1,.1-.55,3.22,3.22,0,0,1-.66.78,1.27,1.27,0,0,1-.81.38.77.77,0,0,1-.61-.3,1.22,1.22,0,0,1-.26-.82,3.31,3.31,0,0,1,.4-1.49,4.07,4.07,0,0,1,1.05-1.33,1.9,1.9,0,0,1,1.11-.53.66.66,0,0,1,.43.13.63.63,0,0,1,.21.38Z" transform="translate(-155 -357.52)" style="fill:#7d7e81"/><path d="M241.6,410.31h.22q-.52,1.36-1.34,1.36a.58.58,0,0,1-.45-.19.67.67,0,0,1-.17-.47,6.72,6.72,0,0,1,.33-1.36l1.19-3.93a3.81,3.81,0,0,0,.15-.58.2.2,0,0,0-.07-.17.71.71,0,0,0-.34-.05h-.2l.07-.22a3.67,3.67,0,0,0,1.25-.18h.13l-1.64,5.4q0,.13-.15.46a2.34,2.34,0,0,0-.15.68.38.38,0,0,0,.06.23.21.21,0,0,0,.17.08.72.72,0,0,0,.43-.24,2.33,2.33,0,0,0,.5-.82" transform="translate(-155 -357.52)" style="fill:#7d7e81"/><path d="M248.65,407.95h.3a4.63,4.63,0,0,0,1.24-.14,1.54,1.54,0,0,0,.83-.64,1.88,1.88,0,0,0,.35-1.1,1.33,1.33,0,0,0-.21-.77.86.86,0,0,0-.49-.37,3.74,3.74,0,0,0-.84-.07h-.24Zm-.07.23-.61,2a3.19,3.19,0,0,0-.15.6.4.4,0,0,0,.2.37,1,1,0,0,0,.5.12h.16l-.07.23h-2.72l.07-.23a1.19,1.19,0,0,0,.54-.11.66.66,0,0,0,.3-.27,4.68,4.68,0,0,0,.23-.66l1.33-4.39a3.15,3.15,0,0,0,.16-.64c0-.24-.22-.36-.66-.36h-.23l.07-.23h1.91a10.88,10.88,0,0,1,1.14,0,2,2,0,0,1,.77.26,1.57,1.57,0,0,1,.6.58,1.46,1.46,0,0,1,.21.75,1.78,1.78,0,0,1-.64,1.33,4,4,0,0,1-2.62.59Z" transform="translate(-155 -357.52)" style="fill:#7d7e81"/><path d="M253,409.62a3.94,3.94,0,0,0,1.17-.82,1.45,1.45,0,0,0,.52-.95.45.45,0,0,0-.08-.29.29.29,0,0,0-.23-.1q-.3,0-.71.6a5,5,0,0,0-.66,1.55m1.5.61h.23q-.64,1.44-1.65,1.44a.86.86,0,0,1-.67-.29,1.15,1.15,0,0,1-.26-.79,3.73,3.73,0,0,1,.34-1.43,4,4,0,0,1,1-1.37,1.73,1.73,0,0,1,1.08-.58.52.52,0,0,1,.43.18.7.7,0,0,1,.15.45,1.47,1.47,0,0,1-.54,1.06,5.73,5.73,0,0,1-1.63,1,2.73,2.73,0,0,0-.14.84.79.79,0,0,0,.13.49.45.45,0,0,0,.37.16q.69,0,1.22-1.14" transform="translate(-155 -357.52)" style="fill:#7d7e81"/><path d="M256.62,410.76a.77.77,0,0,0,.14.47.46.46,0,0,0,.39.19q.68,0,1.11-1.29a6.77,6.77,0,0,0,.44-2,.86.86,0,0,0-.13-.53.47.47,0,0,0-.4-.18q-.63,0-1.09,1.2a6,6,0,0,0-.46,2.11m-.55-.58a3.62,3.62,0,0,1,.29-1.33,2.89,2.89,0,0,1,.82-1.17,1.63,1.63,0,0,1,1-.45.91.91,0,0,1,.75.38,1.68,1.68,0,0,1,.29,1,3.57,3.57,0,0,1-.33,1.5,2.83,2.83,0,0,1-.82,1.09,1.59,1.59,0,0,1-1,.38,1,1,0,0,1-.74-.33,1.59,1.59,0,0,1-.32-1.13" transform="translate(-155 -357.52)" style="fill:#7d7e81"/><path d="M261.58,410.21a2.6,2.6,0,0,0-.14.65.67.67,0,0,0,.14.42.46.46,0,0,0,.39.17,1.07,1.07,0,0,0,.76-.43,4,4,0,0,0,.71-1.42,5.34,5.34,0,0,0,.32-1.49,1,1,0,0,0-.1-.49.34.34,0,0,0-.3-.16,1.28,1.28,0,0,0-.72.4,3.82,3.82,0,0,0-.84,1.67Zm-.94-.78h-.23l1-1.54a10.92,10.92,0,0,0,.55-.95,6.8,6.8,0,0,0,.31-.84l.07-.24h.6l-.35,1.13-.43,1.2q.69-1,1.31-1a.78.78,0,0,1,.64.35,1.41,1.41,0,0,1,.26.88,3.9,3.9,0,0,1-.32,1.41,3.38,3.38,0,0,1-.89,1.31,1.74,1.74,0,0,1-1.15.52.66.66,0,0,1-.7-.52l-.6,2a2.35,2.35,0,0,0-.11.45.19.19,0,0,0,.08.15.86.86,0,0,0,.43.06h.23l-.07.23h-2.13l.07-.23h.11a1.29,1.29,0,0,0,.54-.06,1.84,1.84,0,0,0,.26-.64l1.06-3.49q.34-1.09.77-2.23s-.12.2-.27.46l-.16.26Z" transform="translate(-155 -357.52)" style="fill:#7d7e81"/><path d="M267.5,410.31h.22q-.52,1.36-1.34,1.36a.58.58,0,0,1-.45-.19.67.67,0,0,1-.17-.47,6.68,6.68,0,0,1,.33-1.36l1.19-3.93a3.88,3.88,0,0,0,.15-.58.2.2,0,0,0-.07-.17.72.72,0,0,0-.34-.05h-.2l.07-.22a3.66,3.66,0,0,0,1.25-.18h.13l-1.64,5.4q0,.13-.15.46a2.34,2.34,0,0,0-.15.68.39.39,0,0,0,.06.23.21.21,0,0,0,.18.08.72.72,0,0,0,.43-.24,2.32,2.32,0,0,0,.5-.82" transform="translate(-155 -357.52)" style="fill:#7d7e81"/><path d="M269.59,409.62a3.93,3.93,0,0,0,1.16-.82,1.45,1.45,0,0,0,.52-.95.45.45,0,0,0-.08-.29.28.28,0,0,0-.23-.1q-.3,0-.71.6a5,5,0,0,0-.66,1.55m1.5.61h.23q-.64,1.44-1.65,1.44a.86.86,0,0,1-.67-.29,1.15,1.15,0,0,1-.26-.79,3.75,3.75,0,0,1,.34-1.43,3.94,3.94,0,0,1,1-1.37,1.73,1.73,0,0,1,1.08-.58.52.52,0,0,1,.43.18.7.7,0,0,1,.15.45,1.47,1.47,0,0,1-.54,1.06,5.74,5.74,0,0,1-1.63,1,2.72,2.72,0,0,0-.14.84.78.78,0,0,0,.13.49.44.44,0,0,0,.37.16q.69,0,1.22-1.14" transform="translate(-155 -357.52)" style="fill:#7d7e81"/><path d="M272.4,411.13a.51.51,0,0,1,.16-.38.52.52,0,0,1,.38-.16.54.54,0,0,1,.54.53.52.52,0,0,1-.16.38.53.53,0,0,1-.76,0,.53.53,0,0,1-.15-.38" transform="translate(-155 -357.52)" style="fill:#7d7e81"/><path d="M282.75,409.77H283l-.53,1.75h-5.77l.07-.23h.15a1.11,1.11,0,0,0,.53-.12.69.69,0,0,0,.3-.27,4.45,4.45,0,0,0,.23-.66l1.34-4.39a3.22,3.22,0,0,0,.15-.64c0-.24-.22-.36-.65-.36h-.2l.07-.23h4.87l0,1.55h-.22a2.29,2.29,0,0,0-.4-.91,1,1,0,0,0-.5-.36,5.94,5.94,0,0,0-1.05-.06h-.89l-.9,3h.5a2.34,2.34,0,0,0,1.08-.2,1.87,1.87,0,0,0,.68-.93h.22l-.83,2.71h-.22a2.6,2.6,0,0,0,.06-.52,1.15,1.15,0,0,0-.1-.58.45.45,0,0,0-.28-.21,2.94,2.94,0,0,0-.62,0h-.56l-.65,2.13a3.57,3.57,0,0,0-.16.61.39.39,0,0,0,.24.38,2.15,2.15,0,0,0,.82.11h.4a3,3,0,0,0,1.61-.37,2.72,2.72,0,0,0,.94-1.15" transform="translate(-155 -357.52)" style="fill:#7d7e81"/><path d="M284.84,408.46h-.23a3.44,3.44,0,0,1,.44-.86c.18-.26.36-.4.54-.4a.31.31,0,0,1,.27.16,2.88,2.88,0,0,1,.23.66l.21.85.82-1c.35-.43.6-.65.77-.65s.23.09.23.28a2.39,2.39,0,0,1-.2.88h-.21a3.13,3.13,0,0,0,.17-.76c0-.07,0-.11-.08-.11s-.23.15-.47.46l-1,1.2.31,1.23a5.58,5.58,0,0,0,.18.64c0,.1.09.15.15.15s.12-.07.21-.22a2.45,2.45,0,0,0,.23-.57h.23q-.37,1.29-.92,1.29a.41.41,0,0,1-.36-.22,3.29,3.29,0,0,1-.29-.84l-.21-.85L285,411a4,4,0,0,1-.52.6.44.44,0,0,1-.26.11c-.16,0-.24-.11-.24-.32a2.08,2.08,0,0,1,.26-.84h.23a2.31,2.31,0,0,0-.24.73c0,.1,0,.15.08.15s.27-.21.59-.63l1-1.28-.27-1.12c-.1-.44-.19-.66-.26-.66s-.27.25-.47.76" transform="translate(-155 -357.52)" style="fill:#7d7e81"/><path d="M291.45,410.08h.2a2.85,2.85,0,0,1-.69,1.16,1.32,1.32,0,0,1-.92.43.8.8,0,0,1-.65-.31,1.35,1.35,0,0,1-.25-.87,3.95,3.95,0,0,1,1.28-2.75,1.74,1.74,0,0,1,1.07-.54.64.64,0,0,1,.45.18.55.55,0,0,1,.19.42q0,.36-.29.36c-.2,0-.3-.14-.31-.41s-.08-.3-.23-.3-.41.18-.65.53a5,5,0,0,0-.64,1.41,5.08,5.08,0,0,0-.27,1.34.7.7,0,0,0,.15.47.44.44,0,0,0,.35.17,1,1,0,0,0,.65-.35,2.5,2.5,0,0,0,.56-.94" transform="translate(-155 -357.52)" style="fill:#7d7e81"/><path d="M294,409.62a3.93,3.93,0,0,0,1.17-.82,1.45,1.45,0,0,0,.52-.95.45.45,0,0,0-.08-.29.29.29,0,0,0-.23-.1c-.2,0-.44.2-.71.6a5,5,0,0,0-.66,1.55m1.5.61h.23q-.64,1.44-1.65,1.44a.86.86,0,0,1-.67-.29,1.15,1.15,0,0,1-.26-.79,3.73,3.73,0,0,1,.34-1.43,3.93,3.93,0,0,1,1-1.37,1.74,1.74,0,0,1,1.08-.58.52.52,0,0,1,.43.18.69.69,0,0,1,.15.45,1.47,1.47,0,0,1-.54,1.06,5.74,5.74,0,0,1-1.63,1,2.72,2.72,0,0,0-.14.84.79.79,0,0,0,.13.49.44.44,0,0,0,.38.16c.46,0,.87-.38,1.22-1.14" transform="translate(-155 -357.52)" style="fill:#7d7e81"/><path d="M298.27,410.21a2.62,2.62,0,0,0-.14.65.66.66,0,0,0,.14.42.46.46,0,0,0,.38.17,1.07,1.07,0,0,0,.76-.43,4,4,0,0,0,.71-1.42,5.37,5.37,0,0,0,.32-1.49,1,1,0,0,0-.1-.49.34.34,0,0,0-.3-.16,1.28,1.28,0,0,0-.73.4,3.81,3.81,0,0,0-.84,1.67Zm-.93-.78h-.23l1-1.54a10.83,10.83,0,0,0,.55-.95,6.64,6.64,0,0,0,.31-.84l.07-.24h.6l-.35,1.13-.43,1.2q.69-1,1.31-1a.78.78,0,0,1,.64.35,1.41,1.41,0,0,1,.26.88,3.9,3.9,0,0,1-.32,1.41,3.39,3.39,0,0,1-.89,1.31,1.74,1.74,0,0,1-1.15.52.66.66,0,0,1-.7-.52l-.6,2a2.3,2.3,0,0,0-.11.45.19.19,0,0,0,.08.15.86.86,0,0,0,.43.06H298l-.07.23h-2.13l.07-.23H296a1.28,1.28,0,0,0,.54-.06,1.83,1.83,0,0,0,.27-.64l1.06-3.49q.34-1.09.77-2.23s-.12.2-.27.46l-.16.26Z" transform="translate(-155 -357.52)" style="fill:#7d7e81"/><path d="M304.84,407.35l-.07.23H304l-.67,2.21a8.35,8.35,0,0,0-.34,1.28.27.27,0,0,0,.05.18.19.19,0,0,0,.16.06c.12,0,.28-.12.48-.34a3.57,3.57,0,0,0,.53-.86h.22a3.53,3.53,0,0,1-.71,1.16,1.11,1.11,0,0,1-.73.4.51.51,0,0,1-.41-.18.69.69,0,0,1-.15-.46,6.73,6.73,0,0,1,.32-1.28l.66-2.16h-.7l.07-.23h.7l.47-1.54h.6l-.47,1.54Z" transform="translate(-155 -357.52)" style="fill:#7d7e81"/><path d="M306.88,405a.42.42,0,0,1,.13-.31.45.45,0,0,1,.63,0,.42.42,0,0,1,.13.31.44.44,0,0,1-.13.32.43.43,0,0,1-.31.13.42.42,0,0,1-.32-.14.44.44,0,0,1-.13-.31m.5,5.44h.24a3.12,3.12,0,0,1-.62.88,1.08,1.08,0,0,1-.74.38.59.59,0,0,1-.42-.17.66.66,0,0,1-.18-.5,4.11,4.11,0,0,1,.25-1l.52-1.56a3.46,3.46,0,0,0,.18-.66.22.22,0,0,0,0-.15.2.2,0,0,0-.15-.05q-.2,0-.47.31a2.28,2.28,0,0,0-.38.55h-.24a2.93,2.93,0,0,1,.63-.87,1,1,0,0,1,.67-.32.51.51,0,0,1,.39.16.6.6,0,0,1,.15.43,3.86,3.86,0,0,1-.24,1l-.43,1.33a4.23,4.23,0,0,0-.24.9.35.35,0,0,0,.06.22.2.2,0,0,0,.17.07c.25,0,.55-.3.89-.89" transform="translate(-155 -357.52)" style="fill:#7d7e81"/><path d="M309.28,410.76a.77.77,0,0,0,.14.47.45.45,0,0,0,.39.19q.68,0,1.12-1.29a6.77,6.77,0,0,0,.44-2,.86.86,0,0,0-.13-.53.48.48,0,0,0-.4-.18q-.63,0-1.09,1.2a6,6,0,0,0-.46,2.11m-.55-.58a3.62,3.62,0,0,1,.29-1.33,2.88,2.88,0,0,1,.82-1.17,1.62,1.62,0,0,1,1-.45.9.9,0,0,1,.75.38,1.68,1.68,0,0,1,.29,1,3.54,3.54,0,0,1-.33,1.5,2.82,2.82,0,0,1-.82,1.09,1.6,1.6,0,0,1-1,.38,1,1,0,0,1-.74-.33,1.59,1.59,0,0,1-.32-1.13" transform="translate(-155 -357.52)" style="fill:#7d7e81"/><path d="M316.93,410.58h.26a3,3,0,0,1-.63.82,1,1,0,0,1-.65.27.58.58,0,0,1-.39-.14.52.52,0,0,1-.17-.42,3.55,3.55,0,0,1,.24-.91l.54-1.55a3.43,3.43,0,0,0,.22-.82.36.36,0,0,0-.07-.25.3.3,0,0,0-.23-.08q-.39,0-1,.91a8.7,8.7,0,0,0-1.07,2.38l-.25.81h-.62l.89-2.89a6.46,6.46,0,0,0,.25-.92.22.22,0,0,0,0-.13.11.11,0,0,0-.1,0q-.3,0-.71.74h-.23c.42-.77.82-1.16,1.2-1.16a.36.36,0,0,1,.3.12.57.57,0,0,1,.1.37,4.46,4.46,0,0,1-.34,1.36q.92-1.85,1.79-1.85a.71.71,0,0,1,.49.19.69.69,0,0,1,.21.54,3.34,3.34,0,0,1-.21.86l-.55,1.63a5.45,5.45,0,0,0-.22.74.2.2,0,0,0,0,.14.19.19,0,0,0,.14,0,.57.57,0,0,0,.37-.2,2.77,2.77,0,0,0,.42-.58" transform="translate(-155 -357.52)" style="fill:#7d7e81"/><path d="M319,410.69a1,1,0,0,0,.1.51.34.34,0,0,0,.31.17,1.29,1.29,0,0,0,.82-.49,4.1,4.1,0,0,0,.82-1.51,5.27,5.27,0,0,0,.35-1.38.62.62,0,0,0-.11-.37.37.37,0,0,0-.32-.15q-.63,0-1.3,1.23a4.48,4.48,0,0,0-.67,2m2.71-3.41h.6l-.95,3a4,4,0,0,0-.21.79.26.26,0,0,0,0,.17.16.16,0,0,0,.14.06q.35,0,.81-.83h.21a2.72,2.72,0,0,1-.57.83,1,1,0,0,1-.68.37.42.42,0,0,1-.37-.18.73.73,0,0,1-.13-.44,2,2,0,0,1,.1-.55,3.28,3.28,0,0,1-.66.78,1.28,1.28,0,0,1-.81.38.78.78,0,0,1-.61-.3,1.22,1.22,0,0,1-.26-.82,3.3,3.3,0,0,1,.4-1.49,4.07,4.07,0,0,1,1.05-1.33,1.9,1.9,0,0,1,1.1-.53.66.66,0,0,1,.43.13.62.62,0,0,1,.21.38Z" transform="translate(-155 -357.52)" style="fill:#7d7e81"/><path d="M325.33,410.31h.22q-.52,1.36-1.34,1.36a.59.59,0,0,1-.45-.19.68.68,0,0,1-.17-.47,6.79,6.79,0,0,1,.33-1.36l1.19-3.93a3.62,3.62,0,0,0,.15-.58.2.2,0,0,0-.07-.17.71.71,0,0,0-.34-.05h-.2l.07-.22a3.68,3.68,0,0,0,1.25-.18h.13l-1.64,5.4c0,.08-.07.24-.15.46a2.35,2.35,0,0,0-.15.68.39.39,0,0,0,.06.23.21.21,0,0,0,.18.08.72.72,0,0,0,.43-.24,2.33,2.33,0,0,0,.5-.82" transform="translate(-155 -357.52)" style="fill:#7d7e81"/><path d="M335.33,409.37h.23l-.69,2.23h-.21a5,5,0,0,0-.05-.68,2.37,2.37,0,0,1-1.7.72,2.14,2.14,0,0,1-1.76-.8,2.82,2.82,0,0,1-.65-1.82,4.8,4.8,0,0,1,1.17-3.08,3.39,3.39,0,0,1,2.66-1.44,1.88,1.88,0,0,1,1,.27,1.74,1.74,0,0,1,.65.82,3.42,3.42,0,0,0,.35-.8h.23l-.46,2h-.22a2.43,2.43,0,0,0,0-.26,2,2,0,0,0-.41-1.36,1.37,1.37,0,0,0-1.09-.48,2.12,2.12,0,0,0-1.39.54,4.47,4.47,0,0,0-1.14,1.84,6.63,6.63,0,0,0-.5,2.31,2.35,2.35,0,0,0,.42,1.44,1.35,1.35,0,0,0,1.15.56q1.43,0,2.35-2" transform="translate(-155 -357.52)" style="fill:#7d7e81"/><path d="M337.52,410.76a.77.77,0,0,0,.14.47.45.45,0,0,0,.39.19q.68,0,1.12-1.29a6.76,6.76,0,0,0,.44-2,.86.86,0,0,0-.13-.53.48.48,0,0,0-.4-.18q-.63,0-1.09,1.2a6,6,0,0,0-.46,2.11m-.55-.58a3.6,3.6,0,0,1,.29-1.33,2.89,2.89,0,0,1,.82-1.17,1.62,1.62,0,0,1,1-.45.9.9,0,0,1,.75.38,1.68,1.68,0,0,1,.29,1,3.54,3.54,0,0,1-.33,1.5,2.82,2.82,0,0,1-.82,1.09,1.59,1.59,0,0,1-1,.38,1,1,0,0,1-.74-.33,1.59,1.59,0,0,1-.32-1.13" transform="translate(-155 -357.52)" style="fill:#7d7e81"/><path d="M347.4,410.58h.22a2.42,2.42,0,0,1-.57.78,1,1,0,0,1-.68.31.55.55,0,0,1-.39-.16.58.58,0,0,1-.17-.45,4.15,4.15,0,0,1,.22-1l.42-1.38a3.87,3.87,0,0,0,.19-.78.42.42,0,0,0-.06-.25.23.23,0,0,0-.19-.09q-.41,0-1,.73a10.08,10.08,0,0,0-1.21,2.86l-.14.44h-.61l.84-2.73a4.25,4.25,0,0,0,.22-1,.37.37,0,0,0-.06-.23.22.22,0,0,0-.18-.08q-.36,0-1,.75a8.63,8.63,0,0,0-1.21,2.75l-.15.5h-.61l.94-3.06a4.72,4.72,0,0,0,.19-.73.2.2,0,0,0,0-.12.1.1,0,0,0-.09,0,.61.61,0,0,0-.35.21,2.56,2.56,0,0,0-.44.6h-.23a2.76,2.76,0,0,1,.6-.84,1,1,0,0,1,.63-.33.39.39,0,0,1,.31.13.52.52,0,0,1,.11.35,4.5,4.5,0,0,1-.31,1.26,4.57,4.57,0,0,1,.86-1.24,1.42,1.42,0,0,1,.93-.52.56.56,0,0,1,.44.17.78.78,0,0,1,.15.51,3.11,3.11,0,0,1-.21,1,3.91,3.91,0,0,1,.87-1.29,1.34,1.34,0,0,1,.83-.4.62.62,0,0,1,.47.2.73.73,0,0,1,.19.53,1.56,1.56,0,0,1,0,.34c0,.09-.09.35-.22.78l-.35,1.14a4.31,4.31,0,0,0-.22.87.3.3,0,0,0,0,.18.17.17,0,0,0,.14.06.6.6,0,0,0,.39-.2,2.76,2.76,0,0,0,.45-.59" transform="translate(-155 -357.52)" style="fill:#7d7e81"/><path d="M354.73,410.58H355a2.37,2.37,0,0,1-.56.78,1,1,0,0,1-.68.31.55.55,0,0,1-.39-.16.59.59,0,0,1-.17-.45,4.25,4.25,0,0,1,.22-1l.42-1.38a3.94,3.94,0,0,0,.19-.78.43.43,0,0,0-.06-.25.23.23,0,0,0-.19-.09q-.41,0-1,.73a10.09,10.09,0,0,0-1.21,2.86l-.14.44h-.6l.83-2.73a4.25,4.25,0,0,0,.22-1,.37.37,0,0,0-.06-.23.22.22,0,0,0-.18-.08c-.24,0-.56.25-1,.75a8.63,8.63,0,0,0-1.22,2.75l-.15.5h-.6l.93-3.06a4.6,4.6,0,0,0,.19-.73.2.2,0,0,0,0-.12.1.1,0,0,0-.09,0,.6.6,0,0,0-.35.21,2.53,2.53,0,0,0-.44.6h-.23a2.72,2.72,0,0,1,.6-.84,1,1,0,0,1,.63-.33.39.39,0,0,1,.31.13.52.52,0,0,1,.11.35A4.5,4.5,0,0,1,350,409a4.53,4.53,0,0,1,.86-1.24,1.41,1.41,0,0,1,.93-.52.55.55,0,0,1,.44.17.77.77,0,0,1,.15.51,3.12,3.12,0,0,1-.21,1,3.88,3.88,0,0,1,.87-1.29,1.33,1.33,0,0,1,.83-.4.62.62,0,0,1,.47.2.73.73,0,0,1,.19.53,1.8,1.8,0,0,1,0,.34c0,.09-.09.35-.22.78l-.35,1.14a4.31,4.31,0,0,0-.22.87.29.29,0,0,0,.05.18.17.17,0,0,0,.14.06.6.6,0,0,0,.39-.2,2.83,2.83,0,0,0,.44-.59" transform="translate(-155 -357.52)" style="fill:#7d7e81"/><path d="M359.87,410.48h.21q-.43,1.19-1.16,1.19a.48.48,0,0,1-.37-.14.61.61,0,0,1-.12-.42,4.57,4.57,0,0,1,.27-1.24q-.89,1.79-1.76,1.79a.65.65,0,0,1-.5-.2.71.71,0,0,1-.18-.5,3.81,3.81,0,0,1,.21-1l.56-1.83a2.91,2.91,0,0,0,.12-.49c0-.09,0-.14-.13-.14s-.44.29-.7.86h-.24a2.51,2.51,0,0,1,.54-.87.94.94,0,0,1,.65-.34.5.5,0,0,1,.34.13.49.49,0,0,1,.14.38,3.14,3.14,0,0,1-.16.71L357,410.3a3.24,3.24,0,0,0-.17.72.36.36,0,0,0,.07.24.27.27,0,0,0,.21.08q.45,0,1.07-1a12.31,12.31,0,0,0,1.22-2.82l.1-.31h.61l-.95,2.92a4.47,4.47,0,0,0-.23.87.32.32,0,0,0,.05.2.18.18,0,0,0,.15.07q.39,0,.74-.84" transform="translate(-155 -357.52)" style="fill:#7d7e81"/><path d="M365,410.58h.26a3,3,0,0,1-.63.82,1,1,0,0,1-.65.27.58.58,0,0,1-.39-.14.52.52,0,0,1-.17-.42,3.58,3.58,0,0,1,.24-.91l.55-1.55a3.43,3.43,0,0,0,.22-.82.36.36,0,0,0-.07-.25.29.29,0,0,0-.22-.08q-.39,0-1,.91a8.73,8.73,0,0,0-1.07,2.38l-.25.81h-.62l.89-2.89a6.46,6.46,0,0,0,.25-.92.22.22,0,0,0,0-.13.11.11,0,0,0-.1,0q-.3,0-.71.74h-.23q.63-1.16,1.2-1.16a.36.36,0,0,1,.3.12.58.58,0,0,1,.1.37,4.43,4.43,0,0,1-.34,1.36q.92-1.85,1.79-1.85a.71.71,0,0,1,.49.19.69.69,0,0,1,.21.54,3.32,3.32,0,0,1-.21.86l-.55,1.63a5.45,5.45,0,0,0-.22.74.2.2,0,0,0,0,.14.19.19,0,0,0,.14,0,.56.56,0,0,0,.37-.2,2.7,2.7,0,0,0,.43-.58" transform="translate(-155 -357.52)" style="fill:#7d7e81"/><path d="M368,405.28a.42.42,0,0,0,.32.14.43.43,0,0,0,.32-.13.44.44,0,0,0,.13-.32.43.43,0,0,0-.13-.31.44.44,0,0,0-.32-.13.44.44,0,0,0-.45.44.44.44,0,0,0,.13.31m-.52,6a.2.2,0,0,1-.17-.07.35.35,0,0,1-.06-.22,4.27,4.27,0,0,1,.24-.9l.43-1.33a3.9,3.9,0,0,0,.24-1,.6.6,0,0,0-.15-.43.51.51,0,0,0-.39-.16,1,1,0,0,0-.66.32,2.89,2.89,0,0,0-.64.87h.24a2.28,2.28,0,0,1,.39-.55c.18-.2.34-.31.47-.31a.19.19,0,0,1,.15.05.22.22,0,0,1,0,.15,3.34,3.34,0,0,1-.18.66l-.52,1.56a4.19,4.19,0,0,0-.25,1,.66.66,0,0,0,.18.5.59.59,0,0,0,.42.17,1.09,1.09,0,0,0,.74-.38,3.2,3.2,0,0,0,.62-.87h-.24q-.51.89-.89.89" transform="translate(-155 -357.52)" style="fill:#7d7e81"/><path d="M371.44,407.35l.47-1.54h-.6l-.47,1.54h-.7l-.07.23h.7l-.66,2.16a6.73,6.73,0,0,0-.32,1.28.69.69,0,0,0,.15.46.51.51,0,0,0,.41.18,1.11,1.11,0,0,0,.73-.4,3.54,3.54,0,0,0,.71-1.16h-.22a3.53,3.53,0,0,1-.53.86c-.2.23-.35.34-.48.34a.19.19,0,0,1-.15-.06.27.27,0,0,1-.05-.18,8.49,8.49,0,0,1,.34-1.28l.67-2.21h.75l.07-.23Z" transform="translate(-155 -357.52)" style="fill:#7d7e81"/><path d="M374.24,405a.45.45,0,0,1,.76-.31.42.42,0,0,1,.13.31.43.43,0,0,1-.13.32.43.43,0,0,1-.31.13.42.42,0,0,1-.32-.14.43.43,0,0,1-.13-.31m.5,5.44H375a3.14,3.14,0,0,1-.62.88,1.08,1.08,0,0,1-.74.38.59.59,0,0,1-.42-.17.66.66,0,0,1-.18-.5,4.14,4.14,0,0,1,.25-1l.52-1.56a3.5,3.5,0,0,0,.18-.66.22.22,0,0,0-.05-.15.2.2,0,0,0-.14-.05c-.13,0-.29.1-.47.31a2.28,2.28,0,0,0-.38.55h-.24a2.92,2.92,0,0,1,.63-.87,1,1,0,0,1,.67-.32.51.51,0,0,1,.39.16.6.6,0,0,1,.15.43,3.87,3.87,0,0,1-.24,1l-.43,1.33a4.16,4.16,0,0,0-.24.9.35.35,0,0,0,.06.22.2.2,0,0,0,.17.07c.25,0,.55-.3.89-.89" transform="translate(-155 -357.52)" style="fill:#7d7e81"/><path d="M376.84,409.62a3.92,3.92,0,0,0,1.17-.82,1.45,1.45,0,0,0,.52-.95.45.45,0,0,0-.08-.29.28.28,0,0,0-.23-.1q-.3,0-.71.6a5,5,0,0,0-.66,1.55m1.5.61h.23q-.64,1.44-1.65,1.44a.86.86,0,0,1-.67-.29,1.15,1.15,0,0,1-.26-.79,3.75,3.75,0,0,1,.34-1.43,3.94,3.94,0,0,1,1-1.37,1.73,1.73,0,0,1,1.08-.58.52.52,0,0,1,.43.18.7.7,0,0,1,.15.45,1.47,1.47,0,0,1-.54,1.06,5.73,5.73,0,0,1-1.63,1,2.72,2.72,0,0,0-.14.84.78.78,0,0,0,.13.49.44.44,0,0,0,.37.16q.69,0,1.22-1.14" transform="translate(-155 -357.52)" style="fill:#7d7e81"/><path d="M382.18,410.41a1.25,1.25,0,0,1-.37.87,1.4,1.4,0,0,1-1.08.39,1.15,1.15,0,0,1-.79-.24.67.67,0,0,1-.26-.5.4.4,0,0,1,.08-.25.24.24,0,0,1,.2-.1c.18,0,.27.1.27.29a.83.83,0,0,1,0,.19.34.34,0,0,0,0,.09c0,.08.05.15.16.21a.76.76,0,0,0,.38.09,1,1,0,0,0,.63-.22.7.7,0,0,0,.29-.6,2.55,2.55,0,0,0-.4-1,2.79,2.79,0,0,1-.46-1.2,1.05,1.05,0,0,1,.39-.83,1.32,1.32,0,0,1,.89-.34,1,1,0,0,1,.62.18.5.5,0,0,1,.26.39c0,.18-.08.27-.22.27s-.19-.1-.24-.3a.41.41,0,0,0-.45-.33.83.83,0,0,0-.51.16.48.48,0,0,0-.21.41,2.21,2.21,0,0,0,.35,1,5.86,5.86,0,0,1,.43.84,1.63,1.63,0,0,1,.11.59" transform="translate(-155 -357.52)" style="fill:#7d7e81"/><path d="M383.59,411.51a.51.51,0,0,0,.38.16.54.54,0,0,0,.54-.54.54.54,0,0,0-1.08,0,.53.53,0,0,0,.16.38" transform="translate(-155 -357.52)" style="fill:#7d7e81"/></g><path d="M155.68,395.94l14.7-14.7,5.81,5.81L174.28,389l-3.9-3.89L159.43,396,170.38,407l9.6-9.6H168.54l3.71,3.71-1.84,1.84L163.47,396l6.86-6.86,1.91,1.91-3.63,3.63h15.19l1.28,1.28-14.7,14.7ZM155,411.32h30.77V380.56H155Z" transform="translate(-155 -357.52)" style="fill:#7d7e81"/><g style="clip-path:url(#clip-path)"><text transform="translate(0 13.53)" style="font-size:16.200000762939453px;fill:#7d7e81;font-family:GandhiSans-Regular, Gandhi Sans;letter-spacing:0.00901210412804384em">P<tspan x="9.14" y="0" style="letter-spacing:-0.00901210412804384em">r</tspan><tspan x="14.89" y="0" style="letter-spacing:0.009976610255459904em">o</tspan><tspan x="23.89" y="0" style="letter-spacing:-0.009976610255459904em">f</tspan><tspan x="29.06" y="0">e</tspan><tspan x="37.29" y="0" style="letter-spacing:0.010006751071941655em">ss</tspan><tspan x="50.71" y="0">i</tspan><tspan x="54.48" y="0" style="letter-spacing:0.009976610255459904em">onally Man</tspan><tspan x="130.63" y="0" style="letter-spacing:-0.008981963311562088em">a</tspan><tspan x="138.28" y="0">g</tspan><tspan x="147.22" y="0" style="letter-spacing:0.010006751071941655em">e</tspan><tspan x="155.47" y="0">d</tspan><tspan x="164.41" y="0" style="letter-spacing:0.009976610255459904em"> </tspan><tspan x="168.3" y="0" style="letter-spacing:-0.009976610255459904em">B</tspan><tspan x="177.39" y="0" style="letter-spacing:-0.000030140816481751972em">y</tspan></text></g></svg>