<svg id="Layer_1" data-name="Layer 1" xmlns="http://www.w3.org/2000/svg" xmlns:xlink="http://www.w3.org/1999/xlink" viewBox="0 0 56.98 56.98"><defs><style>.cls-1,.cls-3{fill:none;}.cls-2{clip-path:url(#clip-path);}.cls-3{stroke:#fff;stroke-width:0.33px;}.cls-4{fill:#bbbc8a;}.cls-5{font-size:6.48px;fill:#fff;font-family:$font__arvo;}</style><clipPath id="clip-path" transform="translate(-211 -347.02)"><rect class="cls-1" x="211" y="347.02" width="56.98" height="56.98"/></clipPath></defs><title>green-circle</title><g class="cls-2"><circle class="cls-3" cx="28.49" cy="28.49" r="28.32"/><path class="cls-4" d="M239.13,401a25.49,25.49,0,1,0-25.49-25.49A25.49,25.49,0,0,0,239.13,401" transform="translate(-211 -347.02)"/></g><text class="cls-5" transform="translate(18.95 24.47)">S<tspan x="2.97" y="0">ele</tspan><tspan x="10.24" y="0">c</tspan><tspan x="12.97" y="0">t </tspan><tspan x="15.99" y="0">a </tspan></text><text class="cls-5" transform="translate(38.88 24.47)"> </text><text class="cls-5" transform="translate(16.23 31.41)">F<tspan x="2.79" y="0">loor </tspan><tspan x="13.66" y="0">P</tspan><tspan x="16.82" y="0">l</tspan><tspan x="18.09" y="0">a</tspan><tspan x="20.96" y="0">n </tspan></text><text class="cls-5" transform="translate(41.6 31.41)"> </text><text class="cls-5" transform="translate(19.71 38.35)">D<tspan x="4.09" y="0">e</tspan><tspan x="7.08" y="0">s</tspan><tspan x="9.39" y="0">i</tspan><tspan x="10.65" y="0">g</tspan><tspan x="13.98" y="0">n</tspan></text></svg>