<svg id="Layer_1" data-name="Layer 1" xmlns="http://www.w3.org/2000/svg" xmlns:xlink="http://www.w3.org/1999/xlink" viewBox="0 0 226.19 64.57"><defs><clipPath id="clip-path" transform="translate(-192 -363.43)"><rect x="192" y="363.43" width="226.19" height="64.57" style="fill:none"/></clipPath></defs><title>portabello-logo</title><path d="M196.75,417.19h0l1.57,5.95H195Zm-1-1.74-3.55,12.31h1.59l.91-3.38h3.93l.88,3.38h1.59l-3.31-12.31Z" transform="translate(-192 -363.43)" style="fill:#58595b"/><g style="clip-path:url(#clip-path)"><path d="M218.9,421.31h1.81c1.1,0,2-.76,2-2.4a2,2,0,0,0-2.14-2.23H218.9Zm-1.52-5.86h3.14c1.07,0,3.81,0,3.81,3.54a3.31,3.31,0,0,1-3.55,3.57H218.9v5.21h-1.52Z" transform="translate(-192 -363.43)" style="fill:#58595b"/></g><path d="M243.81,417.19h0l1.57,5.95H242.1Zm-1-1.74-3.55,12.31h1.59l.91-3.38h3.93l.88,3.38h1.59l-3.31-12.31Z" transform="translate(-192 -363.43)" style="fill:#58595b"/><g style="clip-path:url(#clip-path)"><path d="M266,421h1.5c.9,0,2.53,0,2.53-2.38,0-1.21-.81-2-2.22-2H266Zm-1.52-5.59h4a2.88,2.88,0,0,1,3.16,3.09c0,1.35-.47,2.76-1.9,3.1v0a2,2,0,0,1,1.74,2.05l.1,2.1c.07,1.36.29,1.71.65,1.93h-1.83a3.75,3.75,0,0,1-.41-1.78l-.1-1.91c-.12-1.69-1.05-1.79-1.83-1.79H266v5.48h-1.52Z" transform="translate(-192 -363.43)" style="fill:#58595b"/></g><polygon points="95.61 52.02 95.61 53.36 98.69 53.36 98.69 64.33 100.21 64.33 100.21 53.36 103.32 53.36 103.32 52.02 95.61 52.02" style="fill:#58595b"/><polygon points="127.4 52.02 124.93 61.78 124.9 61.78 122.43 52.02 119.88 52.02 119.88 64.33 121.4 64.33 121.4 53.57 121.43 53.57 124.16 64.33 125.67 64.33 128.4 53.57 128.43 53.57 128.43 64.33 129.95 64.33 129.95 52.02 127.4 52.02" style="fill:#58595b"/><polygon points="147.38 52.02 147.38 64.33 153.94 64.33 153.94 62.98 148.89 62.98 148.89 58.57 153.46 58.57 153.46 57.22 148.89 57.22 148.89 53.36 153.74 53.36 153.74 52.02 147.38 52.02" style="fill:#58595b"/><polygon points="176.82 52.02 176.82 62.29 176.78 62.29 172.71 52.02 170.75 52.02 170.75 64.33 172.27 64.33 172.27 54.36 172.3 54.36 176.25 64.33 178.34 64.33 178.34 52.02 176.82 52.02" style="fill:#58595b"/><polygon points="194.86 52.02 194.86 53.36 197.95 53.36 197.95 64.33 199.47 64.33 199.47 53.36 202.57 53.36 202.57 52.02 194.86 52.02" style="fill:#58595b"/><g style="clip-path:url(#clip-path)"><path d="M416.33,418.64c0-1.29-.47-2.19-1.91-2.19a1.83,1.83,0,0,0-2,2c0,3.47,5.81,1.4,5.81,5.9,0,2.84-2.09,3.66-3.83,3.66-2.88,0-3.73-1.48-3.73-4.1h1.52c0,1.38.09,2.86,2.31,2.86a2.07,2.07,0,0,0,2.14-2.17c0-3.48-5.81-1.46-5.81-6,0-1.14.48-3.4,3.6-3.4,2.35,0,3.41,1.17,3.45,3.43Z" transform="translate(-192 -363.43)" style="fill:#58595b"/><path d="M204.74,383V372.34a2,2,0,0,0-1.18-2.1,6.56,6.56,0,0,0-2.16-.25v15.39a6.91,6.91,0,0,0,2.1-.19,2.08,2.08,0,0,0,1.25-2.16m9.4.78q0,4-1.9,5.58a11.36,11.36,0,0,1-3.07,2q-1.17.41-7.76.28v16.27H192V363.74h9.46q6.24,0,8.51.88,4.16,1.58,4.16,6.94Z" transform="translate(-192 -363.43)" style="fill:#677264"/><path d="M228.32,400.94V370.75a1.23,1.23,0,0,0-.39-1,2,2,0,0,0-1.25-.32,2.14,2.14,0,0,0-1.28.32,1.18,1.18,0,0,0-.43,1v30.19a1.2,1.2,0,0,0,.43,1,2,2,0,0,0,1.28.35,1.85,1.85,0,0,0,1.25-.35,1.25,1.25,0,0,0,.39-1m9.4-.56a6.75,6.75,0,0,1-3.06,5.93,13.91,13.91,0,0,1-8,2.08,14.4,14.4,0,0,1-8-2,6.63,6.63,0,0,1-3.09-5.93V372q0-4.23,2.4-6.24,2.71-2.33,8.76-2.33,5.55,0,8.26,2.21a7.67,7.67,0,0,1,2.71,6.31Z" transform="translate(-192 -363.43)" style="fill:#677264"/><path d="M252.85,378.89v-7.21q0-1.63-.82-2a6,6,0,0,0-2.27-.35v11.85a6.41,6.41,0,0,0,2-.19,2.09,2.09,0,0,0,1.12-2.13m11.1,29H254.3a5.68,5.68,0,0,1-1.14-2.81,33.54,33.54,0,0,1-.31-5.26V389q0-1.64-.82-2a6,6,0,0,0-2.27-.35v21.25h-9.65V363.74h12q4.79,0,7.47,2.13a6.86,6.86,0,0,1,2.68,5.65v5.27a6.84,6.84,0,0,1-.69,3.39q-1.25,2.2-5.26,3.51,3.69.95,5.07,3a6.59,6.59,0,0,1,.88,3.66v9.53q.12,2.34.25,3.54.44,3.73,1.45,4.48" transform="translate(-192 -363.43)" style="fill:#677264"/></g><polygon points="71.69 0.32 71.69 5.99 77.12 5.99 77.12 44.45 86.76 44.45 86.76 5.99 92.19 5.99 92.19 0.32 71.69 0.32" style="fill:#677264"/><path d="M295,376.73,296.42,390h-2.78Zm-6.13-13-7.27,44.14h9.52L292.8,396h4.46l1.68,11.85h9.52l-7.27-44.14Z" transform="translate(-192 -363.43)" style="fill:#677264"/><g style="clip-path:url(#clip-path)"><path d="M322.9,399.93V388.72q0-1.65-.73-2a5,5,0,0,0-2.11-.35v15.89a5.39,5.39,0,0,0,1.85-.19,2.18,2.18,0,0,0,1-2.15m0-20.74v-7.5q0-1.64-.73-2a5.06,5.06,0,0,0-2.11-.35v12.17a5.42,5.42,0,0,0,1.85-.19,2.17,2.17,0,0,0,1-2.14m9.4,20a8.21,8.21,0,0,1-2.33,6.06q-2.59,2.65-7.31,2.65H310.42V363.74h11.41q4.79,0,7.47,2.14a6.89,6.89,0,0,1,2.68,5.67v6.11a6.28,6.28,0,0,1-.81,3.34,9,9,0,0,1-4.82,3.21q3.69.95,5.07,2.9a6,6,0,0,1,.88,3.47Z" transform="translate(-192 -363.43)" style="fill:#677264"/></g><polygon points="142.63 0.32 142.63 44.45 161.61 44.45 161.61 38.84 152.28 38.84 152.28 23.27 160.6 23.27 160.6 17.84 152.28 17.84 152.28 5.93 161.49 5.93 161.49 0.32 142.63 0.32" style="fill:#677264"/><polygon points="163.5 0.32 163.5 44.45 181.79 44.45 181.79 38.84 173.21 38.84 173.21 0.32 163.5 0.32" style="fill:#677264"/><polygon points="183.62 0.32 183.62 44.45 201.9 44.45 201.9 38.84 193.33 38.84 193.33 0.32 183.62 0.32" style="fill:#677264"/><g style="clip-path:url(#clip-path)"><path d="M408.47,400.94V370.75a1.23,1.23,0,0,0-.39-1,2,2,0,0,0-1.25-.32,2.14,2.14,0,0,0-1.28.32,1.18,1.18,0,0,0-.43,1v30.19a1.2,1.2,0,0,0,.43,1,2,2,0,0,0,1.28.35,1.85,1.85,0,0,0,1.25-.35,1.25,1.25,0,0,0,.39-1m9.4-.56a6.75,6.75,0,0,1-3.06,5.93,13.91,13.91,0,0,1-8,2.08,14.4,14.4,0,0,1-8-2,6.63,6.63,0,0,1-3.09-5.93V372q0-4.23,2.4-6.24,2.71-2.33,8.76-2.33,5.55,0,8.26,2.21a7.67,7.67,0,0,1,2.71,6.31Z" transform="translate(-192 -363.43)" style="fill:#677264"/></g></svg>